400 0 1 0           
8 KiM GmbH 12 ACIS 30.0 NT 24 Wed Jan 15 16:05:05 2025 
1 9.9999999999999995e-007 1e-010 
body $1 $2 $-1 $-1 #
string_attrib-name_attrib-gen-attrib $-1 $3 $-1 $0 keep keep_kept ignore 17 ATTRIB_XACIS_NAME 31 item_0042005_Nutenstein 8 St M5 #
lump $-1 $-1 $4 $0 #
rgb_color-st-attrib $-1 $5 $1 $0 0.792156862745098 0.88235294117647056 1 #
shell $-1 $-1 $-1 $6 $-1 $2 #
render-rbase-attrib $-1 $-1 $3 $0 $7 $-1 0 1 1 0 0 0 1 0 0 0 1 0 0 0 1 no_rotate no_reflect no_shear #
face $8 $9 $10 $4 $-1 $11 reversed single #
rh_material-rh_entity $-1 4 5 plain 5 color -4 0.792156862745098 0.88235294117647056 1 5 phong 14 ambient factor -2 1 14 diffuse factor -2 0.75 15 specular factor -2 0.5 8 exponent -2 10 14 specular color -4 1 1 1 4 none 4 none #
fmesh-eye-attrib $-1 $12 $-1 $6 #
face $13 $14 $15 $4 $-1 $16 forward single #
loop $-1 $17 $18 $6 #
cone-surface $-1 0 0 3.6500000000000004 0 0 -1 -2.5 0 0 1 I I 0 1 2.5 forward I I I I #
render-rbase-attrib $-1 $19 $8 $6 $20 $-1 0 2 -1 0 0 0 1 0 0 0 -1 0 0 8.3000000000000007 1 rotate no_reflect no_shear #
fmesh-eye-attrib $-1 $21 $-1 $9 #
face $22 $23 $24 $4 $-1 $25 forward single #
loop $-1 $-1 $26 $9 #
cone-surface $-1 8.1088393599998803 7.5 -5.5473886499999026 0 -1 0 -10.800763320081842 0 11.806027760089496 1 I I 0 1 16.001211821872403 forward I I I I #
loop $-1 $-1 $27 $6 #
coedge $-1 $18 $18 $28 $29 reversed $10 $-1 #
rgb_color-st-attrib $-1 $-1 $12 $6 0.792156862745098 0.88235294117647056 1 #
rh_material-rh_entity $-1 4 5 plain 5 color -4 0.792156862745098 0.88235294117647056 1 5 phong 14 ambient factor -2 1 14 diffuse factor -2 0.75 15 specular factor -2 0.5 8 exponent -2 10 14 specular color -4 1 1 1 4 none 4 none #
rgb_color-st-attrib $-1 $30 $13 $9 0.792156862745098 0.88235294117647056 1 #
fmesh-eye-attrib $-1 $31 $-1 $14 #
face $32 $33 $34 $4 $-1 $35 forward single #
loop $-1 $36 $37 $14 #
cone-surface $-1 0 7.5 3.2999999999999989 0 -1 0 2.6919239608712018 -0 2.9586391109575203 1 I I 0 1 4.0000000000000009 forward I I I I #
coedge $-1 $38 $39 $40 $41 forward $15 $-1 #
coedge $-1 $27 $27 $37 $42 reversed $17 $-1 #
coedge $-1 $28 $28 $18 $29 forward $43 $-1 #
edge $44 $45 $45 $28 $46 forward #
render-rbase-attrib $-1 $-1 $21 $9 $7 $-1 0 2 -1 0 0 0 0 -1 -0 -1 -0 0 7.5 0 1 rotate no_reflect no_shear #
rgb_color-st-attrib $-1 $47 $22 $14 0.792156862745098 0.88235294117647056 1 #
fmesh-eye-attrib $-1 $48 $-1 $23 #
face $49 $50 $43 $4 $-1 $51 forward single #
loop $-1 $-1 $52 $23 #
cone-surface $-1 -8.1088393599999655 7.5 -5.5473886499999896 0 -1 0 15.008839359886071 -0 5.5473886499578864 1 I I 0 1 16.001211821751092 forward I I I I #
loop $-1 $-1 $53 $14 #
coedge $-1 $37 $37 $27 $42 forward $24 $-1 #
coedge $-1 $54 $26 $55 $56 reversed $15 $-1 #
coedge $-1 $26 $54 $57 $58 forward $15 $-1 #
coedge $-1 $59 $60 $26 $41 reversed $61 $-1 #
edge $62 $63 $64 $26 $65 forward #
edge $66 $67 $67 $37 $68 forward #
loop $-1 $69 $28 $33 #
ptlist-eye-attrib $-1 $-1 $-1 $29 #
vertex $-1 $29 $70 #
ellipse-curve $-1 0 0 0 -0 -0 1 -2.5 0 0 1 I I #
render-rbase-attrib $-1 $-1 $31 $14 $7 $-1 0 2 -1 0 0 0 0 -1 -0 -1 -0 0 7.5 0 1 rotate no_reflect no_shear #
rgb_color-st-attrib $-1 $71 $32 $23 0.792156862745098 0.88235294117647056 1 #
fmesh-eye-attrib $-1 $72 $-1 $33 #
face $73 $74 $61 $4 $-1 $75 forward single #
plane-surface $-1 0 7.5 0 0 0 -1 1 0 0 forward_v I I I I #
coedge $-1 $76 $77 $78 $79 forward $34 $-1 #
coedge $-1 $80 $55 $60 $81 forward $36 $-1 #
coedge $-1 $39 $38 $82 $83 forward $15 $-1 #
coedge $-1 $53 $84 $38 $56 forward $36 $-1 #
edge $85 $86 $64 $55 $87 forward #
coedge $-1 $88 $89 $39 $58 reversed $69 $-1 #
edge $90 $91 $63 $39 $92 forward #
coedge $-1 $78 $40 $89 $93 reversed $61 $-1 #
coedge $-1 $40 $78 $53 $81 reversed $61 $-1 #
loop $-1 $-1 $40 $50 #
ptlist-eye-attrib $-1 $-1 $-1 $41 #
vertex $-1 $58 $94 #
vertex $-1 $56 $95 #
ellipse-curve $-1 8.1088393599998803 -15.5 -5.5473886499999026 0 1 0 -10.800763320081842 0 11.806027760089496 1 I I #
ptlist-eye-attrib $-1 $-1 $-1 $42 #
vertex $-1 $42 $96 #
intcurve-curve $-1 forward { surfintcur nubs 3 periodic 33 
	0 3 0.48931984709603621 2 0.97863969419207242 2 1.4679595412881086 2 1.9572793883841448 2 
	2.4427323457261516 2 2.9281853030681586 2 3.4136382604101656 2 3.8990912177521726 2 4.3845441750941792 2 
	4.8699971324361861 2 5.3554500897781931 2 5.8409030471202001 2 6.3302228942162362 2 6.8195427413122731 2 
	7.30886258840831 2 7.7981824355043461 2 8.2875022826003821 2 8.7768221296964182 2 9.2661419767924542 2 
	9.7554618238884903 2 10.240914781230497 2 10.726367738572504 2 11.211820695914511 2 11.697273653256518 2 
	12.182726610598525 2 12.66817956794053 2 13.153632525282536 2 13.639085482624543 2 14.128405329720579 2 
	14.617725176816617 2 15.107045023912654 2 15.59636487100869 3 
	2.5 0 6.422498999199199 
	2.5 -0.16310661569867874 6.422498999199199 
	2.4838067376824822 -0.32938442930930689 6.4356710853001218 
	2.4180833598125475 -0.65624910912176915 6.486628612759139 
	2.3685897477239513 -0.81686442306053408 6.5242785578505389 
	2.2399813940533693 -1.1224839291473536 6.6149165020382821 
	2.1607605092503515 -1.2678097825096699 6.6678446618816176 
	1.9791309089769238 -1.5359910387485289 6.7776866575477355 
	1.8766810760278818 -1.6588528299048559 6.8345168864727803 
	1.6597135325905028 -1.8758203733422349 6.9414091229528978 
	1.5373032263959774 -1.9781222321709657 6.9955672502944388 
	1.2690226008419876 -2.1600579658601879 7.0960637704764835 
	1.1231373189389509 -2.2397041880279334 7.142339856268265 
	0.8162625202017767 -2.368845287017475 7.2190213815521318 
	0.65495533068973666 -2.4184451624730339 7.2494571231890799 
	0.3277369413326513 -2.484035423771799 7.2899582141331507 
	0.16181765244733609 -2.5 7.2999999999999989 
	-0.16181765244733506 -2.5 7.2999999999999998 
	-0.3277369413326498 -2.484035423771799 7.2899582141331507 
	-0.65495533068973499 -2.4184451624730348 7.2494571231890799 
	-0.81626252020177503 -2.3688452870174759 7.2190213815521318 
	-1.1231373189389493 -2.2397041880279347 7.142339856268265 
	-1.2690226008419851 -2.1600579658601888 7.0960637704764844 
	-1.5373032263959754 -1.9781222321709666 6.9955672502944397 
	-1.6597135325905015 -1.8758203733422352 6.9414091229528996 
	-1.8766810760278807 -1.6588528299048564 6.8345168864727839 
	-1.9791309089769229 -1.5359910387485305 6.7776866575477346 
	-2.1607605092503506 -1.2678097825096717 6.6678446618816167 
	-2.2399813940533693 -1.1224839291473541 6.6149165020382839 
	-2.3685897477239517 -0.81686442306053386 6.5242785578505398 
	-2.4180833598125475 -0.65624910912176926 6.486628612759139 
	-2.4838067376824822 -0.32938442930930706 6.4356710853001218 
	-2.5 -0.16310661569867868 6.422498999199199 
	-2.5 0.16310661569867865 6.422498999199199 
	-2.4838067376824822 0.32938442930930684 6.4356710853001209 
	-2.4180833598125475 0.65624910912176904 6.4866286127591382 
	-2.3685897477239521 0.81686442306053375 6.5242785578505389 
	-2.2399813940533697 1.1224839291473536 6.614916502038283 
	-2.1607605092503519 1.2678097825096704 6.6678446618816167 
	-1.9791309089769245 1.5359910387485292 6.7776866575477346 
	-1.8766810760278818 1.6588528299048553 6.8345168864727821 
	-1.659713532590503 1.8758203733422345 6.9414091229528978 
	-1.5373032263959769 1.9781222321709655 6.9955672502944397 
	-1.2690226008419867 2.1600579658601879 7.0960637704764844 
	-1.1231373189389509 2.2397041880279343 7.142339856268265 
	-0.81626252020177659 2.368845287017475 7.2190213815521318 
	-0.65495533068973644 2.4184451624730339 7.2494571231890799 
	-0.32773694133265124 2.484035423771799 7.2899582141331507 
	-0.16181765244733645 2.5 7.2999999999999998 
	0.16181765244733493 2.5 7.2999999999999998 
	0.32773694133264986 2.4840354237717994 7.2899582141331507 
	0.65495533068973477 2.4184451624730348 7.2494571231890808 
	0.81626252020177392 2.3688452870174759 7.2190213815521309 
	1.1231373189389473 2.2397041880279351 7.142339856268265 
	1.2690226008419829 2.1600579658601902 7.0960637704764835 
	1.5373032263959732 1.9781222321709684 6.9955672502944388 
	1.6597135325904997 1.8758203733422369 6.9414091229528996 
	1.8766810760278791 1.6588528299048582 6.834516886472783 
	1.9791309089769213 1.5359910387485323 6.7776866575477355 
	2.1607605092503497 1.2678097825096732 6.6678446618816176 
	2.2399813940533684 1.1224839291473554 6.6149165020382839 
	2.3685897477239513 0.81686442306053464 6.5242785578505398 
	2.4180833598125475 0.6562491091217697 6.486628612759139 
	2.4838067376824822 0.32938442930930706 6.4356710853001218 
	2.5 0.16310661569867871 6.422498999199199 
	2.5 0 6.422498999199199 
	0.00017931288129518279 
	cone 0 0 3.6500000000000004 0 0 -1 -2.5 0 0 1 I I 0 1 2.5 forward I I I I 
	cone 0 7.5 3.2999999999999989 0 -1 0 2.6919239608712018 -0 2.9586391109575203 1 I I 0 1 4.0000000000000009 forward I I I I 
	nullbs 
	nullbs 
	I I 
	0 
	0 
	0 
	} I I #
loop $-1 $-1 $89 $33 #
point $-1 2.5 3.0616169978683826e-016 0 #
render-rbase-attrib $-1 $-1 $48 $23 $7 $-1 0 2 -1 0 0 0 0 -1 -0 -1 -0 0 7.5 0 1 rotate no_reflect no_shear #
rgb_color-st-attrib $-1 $97 $49 $33 0.792156862745098 0.88235294117647056 1 #
fmesh-eye-attrib $-1 $98 $-1 $50 #
face $99 $-1 $100 $4 $-1 $101 reversed single #
plane-surface $-1 4.7051029739009209e-011 -15.5 2.6013168801696493 0 -1 0 -1 0 0 forward_v I I I I #
coedge $-1 $102 $52 $103 $104 reversed $34 $-1 #
coedge $-1 $52 $102 $80 $105 forward $34 $-1 #
coedge $-1 $60 $59 $52 $79 reversed $61 $-1 #
edge $106 $107 $108 $52 $109 forward #
coedge $-1 $84 $53 $77 $105 reversed $36 $-1 #
edge $110 $64 $107 $53 $111 forward #
coedge $-1 $112 $113 $54 $83 reversed $100 $-1 #
edge $114 $86 $91 $82 $115 forward #
coedge $-1 $55 $80 $112 $116 forward $36 $-1 #
ptlist-eye-attrib $-1 $-1 $-1 $56 #
vertex $-1 $83 $117 #
straight-curve $-1 -2.6919239600819616 7.5 6.2586391100895931 0 -1 0 I I #
coedge $-1 $103 $57 $113 $118 reversed $69 $-1 #
coedge $-1 $57 $103 $59 $93 forward $69 $-1 #
ptlist-eye-attrib $-1 $-1 $-1 $58 #
vertex $-1 $118 $119 #
straight-curve $-1 -6.9000000000000004 7.5 0 0 -1 0 I I #
edge $120 $108 $63 $89 $121 forward #
point $-1 -6.9000000000000004 -15.5 0 #
point $-1 -2.6919239600819616 -15.5 6.2586391100895931 #
point $-1 2.5 0 6.422498999199199 #
render-rbase-attrib $-1 $-1 $72 $33 $7 $-1 0 2 -1 0 0 0 0 -1 -0 -1 -0 0 7.5 0 1 rotate no_reflect no_shear #
rgb_color-st-attrib $-1 $122 $73 $50 0.792156862745098 0.88235294117647056 1 #
fmesh-eye-attrib $-1 $123 $-1 $74 #
loop $-1 $-1 $113 $74 #
plane-surface $-1 4.7051251783614134e-011 7.5 2.6013168801696489 0 -1 0 -1 0 0 forward_v I I I I #
coedge $-1 $77 $76 $124 $125 forward $34 $-1 #
coedge $-1 $89 $88 $76 $104 forward $69 $-1 #
edge $126 $127 $108 $103 $128 forward #
edge $129 $130 $107 $77 $131 forward #
ptlist-eye-attrib $-1 $-1 $-1 $79 #
vertex $-1 $105 $132 #
vertex $-1 $104 $133 #
ellipse-curve $-1 -8.1088393599999655 -15.5 -5.5473886499999896 0 1 0 15.008839359886071 -0 5.5473886499578864 1 I I #
ptlist-eye-attrib $-1 $-1 $-1 $81 #
ellipse-curve $-1 1.0417954124915861e-014 -15.5 3.2999999999999625 0 1 0 -1.0083166045665253e-014 0 3.9999999987054968 1 I I #
coedge $-1 $124 $82 $84 $116 reversed $100 $-1 #
coedge $-1 $82 $124 $88 $118 forward $100 $-1 #
ptlist-eye-attrib $-1 $-1 $-1 $83 #
ellipse-curve $-1 8.1088393599998803 7.5 -5.5473886499999026 0 -1 0 -10.800763320081842 0 11.806027760089496 1 I I #
edge $134 $130 $86 $112 $135 forward #
point $-1 -2.6919239600819616 7.5 6.2586391100895931 #
edge $136 $127 $91 $113 $137 forward #
point $-1 -6.9000000000000004 7.5 0 #
ptlist-eye-attrib $-1 $-1 $-1 $93 #
straight-curve $-1 6.9000000000000004 -15.5 0 -1 0 0 I I #
render-rbase-attrib $-1 $-1 $98 $50 $7 $-1 0 2 -1 0 0 0 0 -1 -0 -1 -0 0 7.5 0 1 rotate no_reflect no_shear #
rgb_color-st-attrib $-1 $138 $99 $74 0.792156862745098 0.88235294117647056 1 #
coedge $-1 $113 $112 $102 $125 reversed $100 $-1 #
edge $139 $127 $130 $124 $140 forward #
ptlist-eye-attrib $-1 $-1 $-1 $104 #
vertex $-1 $118 $141 #
straight-curve $-1 6.9000000000000004 7.5 0 0 -1 0 I I #
ptlist-eye-attrib $-1 $-1 $-1 $105 #
vertex $-1 $116 $142 #
straight-curve $-1 2.6919239608712018 7.5 6.2586391109575192 0 -1 0 I I #
point $-1 2.6919239608712018 -15.5 6.2586391109575192 #
point $-1 6.9000000000000004 -15.5 0 #
ptlist-eye-attrib $-1 $-1 $-1 $116 #
ellipse-curve $-1 1.0417954124915861e-014 7.5 3.2999999999999625 0 -1 0 -1.0083166045665253e-014 0 3.9999999987054968 1 I I #
ptlist-eye-attrib $-1 $-1 $-1 $118 #
straight-curve $-1 6.9000000000000004 7.5 0 -1 0 0 I I #
render-rbase-attrib $-1 $-1 $123 $74 $7 $-1 0 2 -1 0 0 0 0 -1 -0 -1 -0 0 7.5 0 1 rotate no_reflect no_shear #
ptlist-eye-attrib $-1 $-1 $-1 $125 #
ellipse-curve $-1 -8.1088393599999655 7.5 -5.5473886499999896 0 -1 0 15.008839359886071 -0 5.5473886499578864 1 I I #
point $-1 6.9000000000000004 7.5 0 #
point $-1 2.6919239608712018 7.5 6.2586391109575192 #
End-of-ACIS-data 