400 0 1 0           
8 KiM GmbH 12 ACIS 30.0 NT 24 Sat Jan 18 11:19:30 2025 
1 9.9999999999999995e-007 1e-010 
body $1 $2 $-1 $-1 #
string_attrib-name_attrib-gen-attrib $-1 $3 $-1 $0 keep keep_kept ignore 17 ATTRIB_XACIS_NAME 31 item_0042006_Nutenstein 8 St M4 #
lump $-1 $-1 $4 $0 #
rgb_color-st-attrib $-1 $5 $1 $0 0.792156862745098 0.88235294117647056 1 #
shell $-1 $-1 $-1 $6 $-1 $2 #
render-rbase-attrib $-1 $-1 $3 $0 $7 $-1 0 1 1 0 0 0 1 0 0 0 1 0 0 0 1 no_rotate no_reflect no_shear #
face $8 $9 $10 $4 $-1 $11 reversed single #
rh_material-rh_entity $-1 4 5 plain 5 color -4 0.792156862745098 0.88235294117647056 1 5 phong 14 ambient factor -2 1 14 diffuse factor -2 0.75 15 specular factor -2 0.5 8 exponent -2 10 14 specular color -4 1 1 1 4 none 4 none #
fmesh-eye-attrib $-1 $12 $-1 $6 #
face $13 $14 $15 $4 $-1 $16 forward single #
loop $-1 $17 $18 $6 #
cone-surface $-1 0 0 3.6500000000000004 0 0 -1 -2 0 0 1 I I 0 1 2 forward I I I I #
render-rbase-attrib $-1 $19 $8 $6 $20 $-1 0 2 -1 0 0 0 1 0 0 0 -1 0 0 8.3000000000000007 1 rotate no_reflect no_shear #
fmesh-eye-attrib $-1 $21 $-1 $9 #
face $22 $23 $24 $4 $-1 $25 forward single #
loop $-1 $-1 $26 $9 #
cone-surface $-1 8.1088393599998803 7.5 -5.5473886499999026 0 -1 0 -10.800763320081842 0 11.806027760089496 1 I I 0 1 16.001211821872403 forward I I I I #
loop $-1 $-1 $27 $6 #
coedge $-1 $18 $18 $28 $29 reversed $10 $-1 #
rgb_color-st-attrib $-1 $-1 $12 $6 0.792156862745098 0.88235294117647056 1 #
rh_material-rh_entity $-1 4 5 plain 5 color -4 0.792156862745098 0.88235294117647056 1 5 phong 14 ambient factor -2 1 14 diffuse factor -2 0.75 15 specular factor -2 0.5 8 exponent -2 10 14 specular color -4 1 1 1 4 none 4 none #
rgb_color-st-attrib $-1 $30 $13 $9 0.792156862745098 0.88235294117647056 1 #
fmesh-eye-attrib $-1 $31 $-1 $14 #
face $32 $33 $34 $4 $-1 $35 forward single #
loop $-1 $36 $37 $14 #
cone-surface $-1 0 7.5 3.2999999999999989 0 -1 0 2.6919239608712018 -0 2.9586391109575203 1 I I 0 1 4.0000000000000009 forward I I I I #
coedge $-1 $38 $39 $40 $41 forward $15 $-1 #
coedge $-1 $27 $27 $37 $42 reversed $17 $-1 #
coedge $-1 $28 $28 $18 $29 forward $43 $-1 #
edge $44 $45 $45 $28 $46 forward #
render-rbase-attrib $-1 $-1 $21 $9 $7 $-1 0 2 -1 0 0 0 0 -1 -0 -1 -0 0 7.5 0 1 rotate no_reflect no_shear #
rgb_color-st-attrib $-1 $47 $22 $14 0.792156862745098 0.88235294117647056 1 #
fmesh-eye-attrib $-1 $48 $-1 $23 #
face $49 $50 $43 $4 $-1 $51 forward single #
loop $-1 $-1 $52 $23 #
cone-surface $-1 -8.1088393599999655 7.5 -5.5473886499999896 0 -1 0 15.008839359886071 -0 5.5473886499578864 1 I I 0 1 16.001211821751092 forward I I I I #
loop $-1 $-1 $53 $14 #
coedge $-1 $37 $37 $27 $42 forward $24 $-1 #
coedge $-1 $54 $26 $55 $56 reversed $15 $-1 #
coedge $-1 $26 $54 $57 $58 forward $15 $-1 #
coedge $-1 $59 $60 $26 $41 reversed $61 $-1 #
edge $62 $63 $64 $26 $65 forward #
edge $66 $67 $67 $37 $68 forward #
loop $-1 $69 $28 $33 #
ptlist-eye-attrib $-1 $-1 $-1 $29 #
vertex $-1 $29 $70 #
ellipse-curve $-1 0 0 0 -0 -0 1 -2 0 0 1 I I #
render-rbase-attrib $-1 $-1 $31 $14 $7 $-1 0 2 -1 0 0 0 0 -1 -0 -1 -0 0 7.5 0 1 rotate no_reflect no_shear #
rgb_color-st-attrib $-1 $71 $32 $23 0.792156862745098 0.88235294117647056 1 #
fmesh-eye-attrib $-1 $72 $-1 $33 #
face $73 $74 $61 $4 $-1 $75 forward single #
plane-surface $-1 0 7.5 0 0 0 -1 1 0 0 forward_v I I I I #
coedge $-1 $76 $77 $78 $79 forward $34 $-1 #
coedge $-1 $80 $55 $60 $81 forward $36 $-1 #
coedge $-1 $39 $38 $82 $83 forward $15 $-1 #
coedge $-1 $53 $84 $38 $56 forward $36 $-1 #
edge $85 $86 $64 $55 $87 forward #
coedge $-1 $88 $89 $39 $58 reversed $69 $-1 #
edge $90 $91 $63 $39 $92 forward #
coedge $-1 $78 $40 $89 $93 reversed $61 $-1 #
coedge $-1 $40 $78 $53 $81 reversed $61 $-1 #
loop $-1 $-1 $40 $50 #
ptlist-eye-attrib $-1 $-1 $-1 $41 #
vertex $-1 $58 $94 #
vertex $-1 $56 $95 #
ellipse-curve $-1 8.1088393599998803 -15.5 -5.5473886499999026 0 1 0 -10.800763320081842 0 11.806027760089496 1 I I #
ptlist-eye-attrib $-1 $-1 $-1 $42 #
vertex $-1 $42 $96 #
intcurve-curve $-1 forward { surfintcur nubs 3 periodic 33 
	0 3 0.38491520088147324 2 0.76983040176294648 2 1.1547456026444198 2 1.539660803525893 2 
	1.9235267068519597 2 2.3073926101780264 2 2.691258513504093 2 3.0751244168301595 2 3.458990320156226 2 
	3.8428562234822929 2 4.2267221268083599 2 4.6105880301344264 2 4.9955032310158991 2 5.3804184318973727 2 
	5.7653336327788463 2 6.1502488336603189 2 6.5351640345417916 2 6.9200792354232643 2 7.304994436304737 2 
	7.6899096371862106 2 8.073775540512278 2 8.4576414438383445 2 8.841507347164411 2 9.2253732504904775 2 
	9.609239153816544 2 9.9931050571426105 2 10.376970960468675 2 10.760836863794742 2 11.145752064676216 2 
	11.530667265557689 2 11.915582466439163 2 12.300497667320638 3 
	2 0 6.7641016151377542 
	2 -0.12830506696049107 6.7641016151377542 
	1.9874594177061011 -0.26003865825451855 6.7714388812614326 
	1.9356701287535931 -0.52038081977954331 6.8005805221607192 
	1.8964427315832517 -0.6489990816488389 6.8223361601597423 
	1.7937858568427187 -0.89444283989337503 6.8757067366674862 
	1.730274636912553 -1.0115065062141584 6.9072952158932779 
	1.5843233743119809 -1.2275647351683849 6.9737376795128654 
	1.5018626093175822 -1.326564515428609 7.008529160935808 
	1.3268034509928106 -1.5016236737533806 7.0746953034574691 
	1.227922090620656 -1.5840502881950134 7.1085267286157672 
	1.011815401969743 -1.7300975606923703 7.1715498311774306 
	0.89458367491598922 -1.7937295728214355 7.2006932457345441 
	0.64878799229046979 -1.8965283987659824 7.2490203730457194 
	0.51998970095275521 -1.935777344822323 7.2682145964480336 
	0.25957586674627958 -1.9875219715258554 7.2937121506187887 
	0.12795530110868922 -2 7.2999999999999998 
	-0.12795530110868844 -2 7.2999999999999989 
	-0.25957586674627897 -1.9875219715258554 7.2937121506187887 
	-0.51998970095275476 -1.935777344822323 7.2682145964480336 
	-0.64878799229046957 -1.8965283987659824 7.2490203730457203 
	-0.89458367491598911 -1.7937295728214353 7.2006932457345449 
	-1.0118154019697423 -1.730097560692371 7.1715498311774306 
	-1.2279220906206552 -1.584050288195014 7.1085267286157672 
	-1.3268034509928097 -1.5016236737533804 7.0746953034574691 
	-1.5018626093175813 -1.3265645154286092 7.008529160935808 
	-1.5843233743119809 -1.2275647351683858 6.9737376795128654 
	-1.730274636912553 -1.0115065062141591 6.9072952158932779 
	-1.7937858568427187 -0.89444283989337547 6.8757067366674862 
	-1.8964427315832522 -0.64899908164883913 6.8223361601597414 
	-1.9356701287535931 -0.52038081977954298 6.8005805221607192 
	-1.9874594177061011 -0.26003865825451811 6.7714388812614326 
	-2 -0.12830506696049093 6.7641016151377542 
	-2 0.1283050669604909 6.7641016151377542 
	-1.9874594177061011 0.26003865825451788 6.7714388812614326 
	-1.9356701287535931 0.5203808197795422 6.8005805221607192 
	-1.8964427315832522 0.64899908164883768 6.8223361601597423 
	-1.7937858568427192 0.8944428398933737 6.8757067366674862 
	-1.7302746369125541 1.0115065062141566 6.907295215893277 
	-1.5843233743119822 1.2275647351683834 6.9737376795128645 
	-1.5018626093175822 1.3265645154286072 7.0085291609358071 
	-1.3268034509928106 1.5016236737533788 7.0746953034574691 
	-1.2279220906206565 1.5840502881950125 7.1085267286157654 
	-1.0118154019697434 1.7300975606923699 7.1715498311774288 
	-0.89458367491599011 1.7937295728214346 7.2006932457345449 
	-0.64878799229047091 1.896528398765982 7.2490203730457203 
	-0.5199897009527561 1.9357773448223226 7.2682145964480336 
	-0.25957586674628008 1.987521971525855 7.2937121506187887 
	-0.12795530110868947 2 7.2999999999999998 
	0.12795530110868822 2 7.2999999999999998 
	0.2595758667462788 1.9875219715258554 7.2937121506187887 
	0.51998970095275487 1.935777344822323 7.2682145964480336 
	0.64878799229047002 1.8965283987659824 7.2490203730457203 
	0.89458367491598878 1.7937295728214355 7.2006932457345449 
	1.0118154019697416 1.730097560692371 7.1715498311774297 
	1.227922090620654 1.5840502881950145 7.1085267286157663 
	1.3268034509928084 1.501623673753381 7.0746953034574691 
	1.5018626093175804 1.3265645154286099 7.0085291609358071 
	1.5843233743119807 1.2275647351683858 6.9737376795128654 
	1.7302746369125528 1.0115065062141591 6.9072952158932779 
	1.7937858568427183 0.89444283989337603 6.875706736667488 
	1.8964427315832517 0.64899908164884001 6.8223361601597441 
	1.9356701287535929 0.52038081977954442 6.8005805221607192 
	1.9874594177061014 0.26003865825451922 6.7714388812614326 
	2 0.12830506696049143 6.7641016151377542 
	2 0 6.7641016151377542 
	0.00014657882911352677 
	cone 0 0 3.6500000000000004 0 0 -1 -2 0 0 1 I I 0 1 2 forward I I I I 
	cone 0 7.5 3.2999999999999989 0 -1 0 2.6919239608712018 -0 2.9586391109575203 1 I I 0 1 4.0000000000000009 forward I I I I 
	nullbs 
	nullbs 
	I I 
	0 
	0 
	0 
	} I I #
loop $-1 $-1 $89 $33 #
point $-1 2 2.4492935982947059e-016 0 #
render-rbase-attrib $-1 $-1 $48 $23 $7 $-1 0 2 -1 0 0 0 0 -1 -0 -1 -0 0 7.5 0 1 rotate no_reflect no_shear #
rgb_color-st-attrib $-1 $97 $49 $33 0.792156862745098 0.88235294117647056 1 #
fmesh-eye-attrib $-1 $98 $-1 $50 #
face $99 $-1 $100 $4 $-1 $101 reversed single #
plane-surface $-1 4.7051029739009209e-011 -15.5 2.6013168801696493 0 -1 0 -1 0 0 forward_v I I I I #
coedge $-1 $102 $52 $103 $104 reversed $34 $-1 #
coedge $-1 $52 $102 $80 $105 forward $34 $-1 #
coedge $-1 $60 $59 $52 $79 reversed $61 $-1 #
edge $106 $107 $108 $52 $109 forward #
coedge $-1 $84 $53 $77 $105 reversed $36 $-1 #
edge $110 $64 $107 $53 $111 forward #
coedge $-1 $112 $113 $54 $83 reversed $100 $-1 #
edge $114 $86 $91 $82 $115 forward #
coedge $-1 $55 $80 $112 $116 forward $36 $-1 #
ptlist-eye-attrib $-1 $-1 $-1 $56 #
vertex $-1 $83 $117 #
straight-curve $-1 -2.6919239600819616 7.5 6.2586391100895931 0 -1 0 I I #
coedge $-1 $103 $57 $113 $118 reversed $69 $-1 #
coedge $-1 $57 $103 $59 $93 forward $69 $-1 #
ptlist-eye-attrib $-1 $-1 $-1 $58 #
vertex $-1 $118 $119 #
straight-curve $-1 -6.9000000000000004 7.5 0 0 -1 0 I I #
edge $120 $108 $63 $89 $121 forward #
point $-1 -6.9000000000000004 -15.5 0 #
point $-1 -2.6919239600819616 -15.5 6.2586391100895931 #
point $-1 2 0 6.7641016151377542 #
render-rbase-attrib $-1 $-1 $72 $33 $7 $-1 0 2 -1 0 0 0 0 -1 -0 -1 -0 0 7.5 0 1 rotate no_reflect no_shear #
rgb_color-st-attrib $-1 $122 $73 $50 0.792156862745098 0.88235294117647056 1 #
fmesh-eye-attrib $-1 $123 $-1 $74 #
loop $-1 $-1 $113 $74 #
plane-surface $-1 4.7051251783614134e-011 7.5 2.6013168801696489 0 -1 0 -1 0 0 forward_v I I I I #
coedge $-1 $77 $76 $124 $125 forward $34 $-1 #
coedge $-1 $89 $88 $76 $104 forward $69 $-1 #
edge $126 $127 $108 $103 $128 forward #
edge $129 $130 $107 $77 $131 forward #
ptlist-eye-attrib $-1 $-1 $-1 $79 #
vertex $-1 $105 $132 #
vertex $-1 $104 $133 #
ellipse-curve $-1 -8.1088393599999655 -15.5 -5.5473886499999896 0 1 0 15.008839359886071 -0 5.5473886499578864 1 I I #
ptlist-eye-attrib $-1 $-1 $-1 $81 #
ellipse-curve $-1 1.0417954124915861e-014 -15.5 3.2999999999999625 0 1 0 -1.0083166045665253e-014 0 3.9999999987054968 1 I I #
coedge $-1 $124 $82 $84 $116 reversed $100 $-1 #
coedge $-1 $82 $124 $88 $118 forward $100 $-1 #
ptlist-eye-attrib $-1 $-1 $-1 $83 #
ellipse-curve $-1 8.1088393599998803 7.5 -5.5473886499999026 0 -1 0 -10.800763320081842 0 11.806027760089496 1 I I #
edge $134 $130 $86 $112 $135 forward #
point $-1 -2.6919239600819616 7.5 6.2586391100895931 #
edge $136 $127 $91 $113 $137 forward #
point $-1 -6.9000000000000004 7.5 0 #
ptlist-eye-attrib $-1 $-1 $-1 $93 #
straight-curve $-1 6.9000000000000004 -15.5 0 -1 0 0 I I #
render-rbase-attrib $-1 $-1 $98 $50 $7 $-1 0 2 -1 0 0 0 0 -1 -0 -1 -0 0 7.5 0 1 rotate no_reflect no_shear #
rgb_color-st-attrib $-1 $138 $99 $74 0.792156862745098 0.88235294117647056 1 #
coedge $-1 $113 $112 $102 $125 reversed $100 $-1 #
edge $139 $127 $130 $124 $140 forward #
ptlist-eye-attrib $-1 $-1 $-1 $104 #
vertex $-1 $118 $141 #
straight-curve $-1 6.9000000000000004 7.5 0 0 -1 0 I I #
ptlist-eye-attrib $-1 $-1 $-1 $105 #
vertex $-1 $116 $142 #
straight-curve $-1 2.6919239608712018 7.5 6.2586391109575192 0 -1 0 I I #
point $-1 2.6919239608712018 -15.5 6.2586391109575192 #
point $-1 6.9000000000000004 -15.5 0 #
ptlist-eye-attrib $-1 $-1 $-1 $116 #
ellipse-curve $-1 1.0417954124915861e-014 7.5 3.2999999999999625 0 -1 0 -1.0083166045665253e-014 0 3.9999999987054968 1 I I #
ptlist-eye-attrib $-1 $-1 $-1 $118 #
straight-curve $-1 6.9000000000000004 7.5 0 -1 0 0 I I #
render-rbase-attrib $-1 $-1 $123 $74 $7 $-1 0 2 -1 0 0 0 0 -1 -0 -1 -0 0 7.5 0 1 rotate no_reflect no_shear #
ptlist-eye-attrib $-1 $-1 $-1 $125 #
ellipse-curve $-1 -8.1088393599999655 7.5 -5.5473886499999896 0 -1 0 15.008839359886071 -0 5.5473886499578864 1 I I #
point $-1 6.9000000000000004 7.5 0 #
point $-1 2.6919239608712018 7.5 6.2586391109575192 #
End-of-ACIS-data 