400 0 1 0           
8 KiM GmbH 12 ACIS 30.0 NT 24 Sun Jan 19 12:13:08 2025 
1 9.9999999999999995e-007 1e-010 
body $1 $2 $-1 $-1 #
string_attrib-name_attrib-gen-attrib $-1 $3 $-1 $0 keep keep_kept ignore 17 ATTRIB_XACIS_NAME 24 item_0067777_Winkel 5 20 #
lump $-1 $-1 $4 $0 #
rgb_color-st-attrib $-1 $5 $1 $0 0.85098039215686272 0.83921568627450982 0.85882352941176465 #
shell $-1 $-1 $-1 $6 $-1 $2 #
render-rbase-attrib $-1 $-1 $3 $0 $7 $-1 0 1 1 0 0 0 1 0 0 0 1 0 0 0 1 no_rotate no_reflect no_shear #
face $8 $9 $10 $4 $-1 $11 reversed single #
rh_material-rh_entity $-1 4 5 plain 5 color -4 0.85098039215686272 0.83921568627450982 0.85882352941176465 5 phong 14 ambient factor -2 1 14 diffuse factor -2 0.75 15 specular factor -2 0.5 8 exponent -2 10 14 specular color -4 1 1 1 4 none 4 none #
fmesh-eye-attrib $-1 $12 $-1 $6 #
face $13 $14 $15 $4 $-1 $16 forward single #
loop $-1 $-1 $17 $6 #
cone-surface $-1 0 -6.2999999999999998 -10 0 -1 0 -5.75 0 0 1 I I 0 1 5.75 forward I I I I #
rgb_color-st-attrib $-1 $18 $8 $6 0.85098039215686272 0.83921568627450982 0.85882352941176465 #
fmesh-eye-attrib $-1 $19 $-1 $9 #
face $20 $21 $22 $4 $-1 $23 reversed single #
loop $-1 $-1 $24 $9 #
cone-surface $-1 -9.6500000000000004 -5.6000000001221784 -5.6000000001221766 1 0 0 0 1.8000000001221759 1.2217604705710983e-010 1 I I 0 -1 1.8000000001221759 forward I I I I #
coedge $-1 $25 $26 $27 $28 reversed $10 $-1 #
render-rbase-attrib $-1 $-1 $12 $6 $29 $-1 0 2 -1 0 0 0 0 -1 -0 -1 -0 0 -3.7999999999999998 -10 1 rotate no_reflect no_shear #
render-rbase-attrib $-1 $30 $13 $9 $7 $-1 0 2 0 -1 0 0 0 -1 1 0 0 -9.6500000000000004 0 0 1 rotate no_reflect no_shear #
fmesh-eye-attrib $-1 $31 $-1 $14 #
face $32 $33 $34 $4 $-1 $16 forward single #
loop $-1 $-1 $35 $14 #
cone-surface $-1 0 -10 -6.2999999999999998 0 0 -1 0 -5.75 0 1 I I 0 1 5.75 forward I I I I #
coedge $-1 $36 $37 $38 $39 forward $15 $-1 #
coedge $-1 $38 $17 $35 $40 reversed $10 $-1 #
coedge $-1 $17 $38 $41 $42 reversed $10 $-1 #
coedge $-1 $43 $44 $17 $28 forward $34 $-1 #
edge $45 $46 $47 $27 $48 forward #
rh_material-rh_entity $-1 4 5 plain 5 color -4 0.85098039215686272 0.83921568627450982 0.85882352941176465 5 phong 14 ambient factor -2 1 14 diffuse factor -2 0.75 15 specular factor -2 0.5 8 exponent -2 10 14 specular color -4 1 1 1 4 none 4 none #
rgb_color-st-attrib $-1 $-1 $19 $9 0.85098039215686272 0.83921568627450982 0.85882352941176465 #
render-rbase-attrib $-1 $49 $20 $14 $50 $-1 0 2 0 -1 0 -1 0 0 -0 -0 -1 0 -10 -3.7999999999999998 1 rotate no_reflect no_shear #
fmesh-eye-attrib $-1 $51 $-1 $21 #
face $52 $53 $54 $4 $-1 $55 reversed single #
loop $-1 $-1 $27 $21 #
coedge $-1 $56 $57 $25 $40 forward $22 $-1 #
coedge $-1 $58 $24 $57 $59 forward $15 $-1 #
coedge $-1 $24 $60 $61 $62 forward $15 $-1 #
coedge $-1 $26 $25 $24 $39 reversed $10 $-1 #
edge $63 $64 $65 $24 $66 forward #
edge $67 $65 $46 $35 $68 forward #
coedge $-1 $69 $69 $26 $42 forward $70 $-1 #
edge $71 $47 $64 $41 $72 forward #
coedge $-1 $73 $27 $74 $75 forward $34 $-1 #
coedge $-1 $27 $76 $56 $77 forward $34 $-1 #
ptlist-eye-attrib $-1 $-1 $-1 $28 #
vertex $-1 $40 $78 #
vertex $-1 $75 $79 #
intcurve-curve $-1 forward { surfintcur nubs 3 open 11 
	3.6421095567646695 3 4.2636408082214086 2 5.2202000029513886 2 6.1767591976813687 2 7.1333183924113488 2 
	8.0898775871413289 2 9.0464367818713072 2 10.002995976601287 2 10.959555171331267 2 11.916114366061247 2 
	12.537645617517986 3 
	-4.0934678344130369 -3.8367621460587347 -5.9619285433977467 
	-3.9371817898115817 -3.8042422337428965 -5.8034984745387277 
	-3.7680184725621388 -3.7960513047996001 -5.6517328455683362 
	-3.3584918061553264 -3.8103891468920654 -5.3218994737612828 
	-3.0895483211584529 -3.8516593397197925 -5.1396195217864493 
	-2.5208558260032623 -3.9681209307647989 -4.8217866869741304 
	-2.22115823955835 -4.0435518525204728 -4.6862296070274052 
	-1.60361612804284 -4.1939085929553421 -4.4684441628861826 
	-1.2854025984109434 -4.2687323670677824 -4.3860580591503089 
	-0.64315734118996215 -4.3772629247969892 -4.2768057698686386 
	-0.31885306490999332 -4.4094119100969351 -4.25 
	0.31885306490999277 -4.4094119100969351 -4.25 
	0.64315734118996115 -4.3772629247969892 -4.2768057698686386 
	1.2854025984109416 -4.2687323670677824 -4.3860580591503089 
	1.603616128042838 -4.1939085929553421 -4.4684441628861808 
	2.2211582395583478 -4.0435518525204728 -4.6862296070274052 
	2.5208558260032596 -3.9681209307647989 -4.8217866869741286 
	3.0895483211584494 -3.851659339719792 -5.1396195217864467 
	3.3584918061553246 -3.8103891468920659 -5.3218994737612793 
	3.7680184725621375 -3.7960513047996001 -5.6517328455683336 
	3.9371817898115795 -3.8042422337428961 -5.8034984745387259 
	4.0934678344130351 -3.8367621460587347 -5.9619285433977449 
	0.00047240196455374309 
	cone 0 -6.2999999999999998 -10 0 -1 0 -5.75 0 0 1 I I 0 1 5.75 forward I I I I 
	cone -9.6500000000000004 -5.6000000001221784 -5.6000000001221766 1 0 0 0 1.8000000001221759 1.2217604705710983e-010 1 I I 0 -1 1.8000000001221759 forward I I I I 
	nullbs 
	nullbs 
	I I 
	0 
	0 
	0 
	} I I #
rgb_color-st-attrib $-1 $-1 $31 $14 0.85098039215686272 0.83921568627450982 0.85882352941176465 #
rh_material-rh_entity $-1 4 5 plain 5 color -4 0.85098039215686272 0.83921568627450982 0.85882352941176465 5 phong 14 ambient factor -2 1 14 diffuse factor -2 0.75 15 specular factor -2 0.5 8 exponent -2 10 14 specular color -4 1 1 1 4 none 4 none #
render-rbase-attrib $-1 $80 $32 $21 $7 $-1 0 2 0 -1 0 0 0 -1 1 0 0 -9.6500000000000004 0 0 1 rotate no_reflect no_shear #
fmesh-eye-attrib $-1 $81 $-1 $33 #
face $82 $83 $70 $4 $-1 $84 reversed single #
loop $-1 $85 $86 $33 #
cone-surface $-1 0 -0.45000000000000001 -10 0 -1 0 -2.8500000000000001 0 0 1 I I 0 1 2.8500000000000001 forward I I I I #
coedge $-1 $87 $35 $44 $77 reversed $22 $-1 #
coedge $-1 $35 $87 $36 $59 reversed $22 $-1 #
coedge $-1 $60 $36 $88 $89 reversed $15 $-1 #
edge $90 $65 $91 $36 $92 forward #
coedge $-1 $37 $58 $93 $94 reversed $15 $-1 #
coedge $-1 $95 $96 $37 $62 reversed $97 $-1 #
edge $98 $99 $64 $37 $100 forward #
ptlist-eye-attrib $-1 $-1 $-1 $39 #
vertex $-1 $39 $101 #
vertex $-1 $59 $102 #
intcurve-curve $-1 forward { ref 0 } I I #
ptlist-eye-attrib $-1 $-1 $-1 $40 #
ellipse-curve $-1 0 -10 -10 -0 0.70710678118654746 -0.70710678118654746 0 -5.7500000000000009 -5.75 0.70710678118654757 I I #
coedge $-1 $41 $41 $96 $103 reversed $70 $-1 #
loop $-1 $104 $69 $53 #
ptlist-eye-attrib $-1 $-1 $-1 $42 #
ellipse-curve $-1 0 -3.7999999999999998 -10 0 -1 0 -5.75 0 0 1 I I #
coedge $-1 $76 $43 $105 $106 forward $34 $-1 #
coedge $-1 $96 $107 $43 $75 reversed $97 $-1 #
edge $108 $47 $109 $43 $100 forward #
coedge $-1 $44 $73 $110 $111 reversed $34 $-1 #
edge $112 $113 $46 $44 $92 forward #
point $-1 0.9391105294298856 -4.3272077939067914 -4.3272077938998184 #
point $-1 3.7016888037759244 -3.8000000000000025 -5.6000000000000005 #
rgb_color-st-attrib $-1 $-1 $51 $21 0.85098039215686272 0.83921568627450982 0.85882352941176465 #
rgb_color-st-attrib $-1 $114 $52 $33 0.85098039215686272 0.83921568627450982 0.85882352941176465 #
fmesh-eye-attrib $-1 $115 $-1 $53 #
face $116 $117 $118 $4 $-1 $119 reversed single #
cone-surface $-1 0 -2.3500000000000001 -10 0 -1 0 -4.2999999999999998 0 0 1 I I 0.70710678118654757 0.70710678118654757 4.2999999999999998 forward I I I I #
loop $-1 $-1 $120 $33 #
coedge $-1 $86 $86 $121 $122 forward $54 $-1 #
coedge $-1 $57 $56 $123 $124 reversed $22 $-1 #
coedge $-1 $125 $126 $58 $89 forward $127 $-1 #
edge $128 $129 $91 $88 $130 forward #
ptlist-eye-attrib $-1 $-1 $-1 $59 #
vertex $-1 $59 $131 #
intcurve-curve $-1 forward { surfintcur nubs 3 open 11 
	3.6415227641163614 3 4.2630540155731005 2 5.2196132103030815 2 6.1761724050330624 2 7.1327315997630434 2 
	8.0892907944930244 2 9.0458499892230044 2 10.002409183952986 2 10.958968378682968 2 11.915527573412948 2 
	12.537058824869689 3 
	4.0934678344130386 -5.9619285433977485 -3.8367621460587329 
	3.9371817898115835 -5.8034984745387295 -3.8042422337428947 
	3.7680184725621406 -5.651732845568338 -3.7960513047995983 
	3.3584918061553282 -5.3218994737612846 -3.8103891468920636 
	3.0895483211584547 -5.1396195217864511 -3.8516593397197907 
	2.5208558260032641 -4.8217866869741313 -3.9681209307647975 
	2.2211582395583518 -4.6862296070274052 -4.043551852520471 
	1.6036161280428411 -4.4684441628861826 -4.1939085929553404 
	1.2854025984109436 -4.3860580591503089 -4.2687323670677815 
	0.64315734118996204 -4.2768057698686386 -4.3772629247969883 
	0.3188530649099936 -4.25 -4.4094119100969351 
	-0.31885306490999332 -4.25 -4.4094119100969351 
	-0.64315734118996137 -4.2768057698686386 -4.3772629247969874 
	-1.285402598410943 -4.3860580591503089 -4.2687323670677806 
	-1.6036161280428405 -4.4684441628861817 -4.1939085929553404 
	-2.2211582395583513 -4.6862296070274052 -4.043551852520471 
	-2.5208558260032632 -4.8217866869741313 -3.9681209307647975 
	-3.0895483211584542 -5.1396195217864511 -3.8516593397197907 
	-3.3584918061553282 -5.3218994737612828 -3.8103891468920636 
	-3.7680184725621411 -5.6517328455683371 -3.7960513047995983 
	-3.9371817898115835 -5.8034984745387295 -3.8042422337428947 
	-4.0934678344130377 -5.9619285433977485 -3.8367621460587329 
	0.00047240196455562228 
	cone 0 -10 -6.2999999999999998 0 0 -1 0 -5.75 0 1 I I 0 1 5.75 forward I I I I 
	cone -9.6500000000000004 -5.6000000001221784 -5.6000000001221766 1 0 0 0 1.8000000001221759 1.2217604705710983e-010 1 I I 0 -1 1.8000000001221759 forward I I I I 
	nullbs 
	nullbs 
	I I 
	0 
	0 
	0 
	} I I #
coedge $-1 $132 $133 $60 $94 forward $134 $-1 #
edge $135 $99 $129 $60 $136 forward #
coedge $-1 $137 $61 $133 $138 forward $97 $-1 #
coedge $-1 $61 $74 $69 $103 forward $97 $-1 #
loop $-1 $-1 $96 $139 #
ptlist-eye-attrib $-1 $-1 $-1 $62 #
vertex $-1 $94 $140 #
straight-curve $-1 -9.6500000000000004 -3.8000000000000025 -5.6000000000000005 1 0 0 I I #
point $-1 -3.7016888037759244 -3.8000000000000025 -5.6000000000000005 #
point $-1 -0.93911052942988671 -4.3272077939067914 -4.3272077938998184 #
edge $141 $47 $64 $96 $142 forward #
loop $-1 $-1 $121 $53 #
coedge $-1 $143 $144 $73 $106 reversed $145 $-1 #
edge $146 $109 $147 $73 $148 forward #
coedge $-1 $74 $137 $143 $149 forward $97 $-1 #
ptlist-eye-attrib $-1 $-1 $-1 $75 #
vertex $-1 $75 $150 #
coedge $-1 $151 $125 $76 $111 forward $127 $-1 #
edge $152 $113 $147 $110 $130 forward #
ptlist-eye-attrib $-1 $-1 $-1 $77 #
vertex $-1 $111 $153 #
render-rbase-attrib $-1 $-1 $81 $33 $154 $-1 0 2 -1 0 0 0 0 -1 -0 -1 -0 0 0 -10 1 rotate no_reflect no_shear #
rgb_color-st-attrib $-1 $155 $82 $53 0.85098039215686272 0.83921568627450982 0.85882352941176465 #
fmesh-eye-attrib $-1 $156 $-1 $83 #
face $157 $158 $159 $4 $-1 $160 reversed single #
loop $-1 $161 $162 $83 #
cone-surface $-1 0 -10 -0.45000000000000001 0 0 -1 0 -2.8500000000000001 0 1 I I 0 1 2.8500000000000001 forward I I I I #
coedge $-1 $120 $120 $163 $164 reversed $85 $-1 #
coedge $-1 $121 $121 $86 $122 reversed $104 $-1 #
edge $165 $166 $166 $121 $167 forward #
coedge $-1 $168 $168 $87 $124 forward $159 $-1 #
edge $169 $91 $113 $123 $170 forward #
coedge $-1 $110 $88 $168 $171 forward $127 $-1 #
coedge $-1 $88 $172 $132 $173 forward $127 $-1 #
loop $-1 $-1 $125 $174 #
ptlist-eye-attrib $-1 $-1 $-1 $89 #
vertex $-1 $173 $175 #
straight-curve $-1 -9.6500000000000004 -5.5999999999999996 -3.7999999999999998 1 0 0 I I #
point $-1 -3.7016888039211389 -5.6000000001221713 -3.8000000000000003 #
coedge $-1 $176 $93 $126 $173 reversed $134 $-1 #
coedge $-1 $93 $177 $95 $138 reversed $134 $-1 #
loop $-1 $-1 $178 $179 #
ptlist-eye-attrib $-1 $-1 $-1 $94 #
ellipse-curve $-1 -9.6500000000000004 -5.6000000001221784 -5.6000000001221766 1 0 0 0 1.8000000001221759 1.2217604705710983e-010 1 I I #
coedge $-1 $107 $95 $180 $181 forward $97 $-1 #
edge $182 $99 $183 $95 $184 forward #
face $185 $174 $97 $4 $-1 $186 forward single #
point $-1 -9.6500000000000004 -3.8000000000000025 -5.6000000000000005 #
ptlist-eye-attrib $-1 $-1 $-1 $103 #
ellipse-curve $-1 0 -3.7999999999999998 -10 -0 1 -0 -5.75 0 0 1 I I #
coedge $-1 $187 $105 $107 $149 reversed $145 $-1 #
coedge $-1 $105 $188 $151 $189 reversed $145 $-1 #
loop $-1 $-1 $190 $191 #
ptlist-eye-attrib $-1 $-1 $-1 $106 #
vertex $-1 $111 $192 #
ellipse-curve $-1 9.6500000000000004 -5.6000000001221784 -5.6000000001221766 1 0 0 0 1.8000000001221759 1.2217604705710983e-010 1 I I #
edge $193 $194 $109 $107 $195 forward #
point $-1 9.6500000000000004 -3.8000000000000025 -5.6000000000000005 #
coedge $-1 $172 $110 $144 $189 forward $127 $-1 #
ptlist-eye-attrib $-1 $-1 $-1 $111 #
point $-1 3.7016888039211477 -5.6000000001221784 -3.7999999999999998 #
rh_material-rh_entity $-1 4 5 plain 5 color -4 0.85098039215686272 0.83921568627450982 0.85882352941176465 5 phong 14 ambient factor -2 1 14 diffuse factor -2 0.75 15 specular factor -2 0.5 8 exponent -2 10 14 specular color -4 1 1 1 4 none 4 none #
render-rbase-attrib $-1 $-1 $115 $53 $154 $-1 0 2 -1 0 0 0 0 -1 -0 -1 -0 0 0 -10 1 rotate no_reflect no_shear #
rgb_color-st-attrib $-1 $196 $116 $83 0.85098039215686272 0.83921568627450982 0.85882352941176465 #
fmesh-eye-attrib $-1 $197 $-1 $117 #
face $198 $199 $200 $4 $-1 $201 forward single #
loop $-1 $202 $168 $117 #
cone-surface $-1 0 -10 -2.3500000000000001 0 0 -1 0 -4.2999999999999998 0 1 I I 0.70710678118654757 0.70710678118654757 4.2999999999999998 forward I I I I #
loop $-1 $-1 $203 $83 #
coedge $-1 $162 $162 $204 $205 forward $118 $-1 #
coedge $-1 $163 $163 $120 $164 forward $206 $-1 #
edge $207 $208 $208 $163 $209 forward #
ptlist-eye-attrib $-1 $-1 $-1 $122 #
vertex $-1 $122 $210 #
ellipse-curve $-1 0 -0.90000000000000002 -10 0 -1 0 -2.8500000000000001 0 0 1 I I #
coedge $-1 $123 $123 $125 $171 reversed $159 $-1 #
ptlist-eye-attrib $-1 $-1 $-1 $124 #
ellipse-curve $-1 0 -10 -3.7999999999999998 0 0 -1 0 -5.75 0 1 I I #
edge $211 $91 $113 $125 $212 forward #
coedge $-1 $126 $151 $213 $214 reversed $127 $-1 #
edge $215 $216 $129 $126 $217 forward #
face $218 $219 $127 $4 $-1 $220 forward single #
point $-1 -9.6500000000000004 -5.5999999999999996 -3.7999999999999998 #
coedge $-1 $221 $132 $222 $223 reversed $134 $-1 #
coedge $-1 $133 $224 $225 $226 reversed $134 $-1 #
coedge $-1 $227 $228 $229 $230 forward $134 $-1 #
face $231 $191 $134 $4 $-1 $232 reversed single #
coedge $-1 $225 $233 $137 $181 reversed $234 $-1 #
edge $235 $183 $194 $137 $236 forward #
ptlist-eye-attrib $-1 $-1 $-1 $138 #
vertex $-1 $138 $237 #
straight-curve $-1 -9.6500000000000004 -3.7999999999999998 -5.5999999999999996 0 0 -1 I I #
fmesh-eye-attrib $-1 $238 $-1 $139 #
plane-surface $-1 -9.6500000000000004 -3.7999999999999998 -12.200000000000001 0 -1 0 0 0 -1 forward_v I I I I #
coedge $-1 $239 $143 $233 $240 reversed $145 $-1 #
coedge $-1 $144 $241 $242 $243 reversed $145 $-1 #
edge $244 $147 $245 $151 $246 forward #
coedge $-1 $247 $248 $249 $250 forward $145 $-1 #
face $251 $-1 $145 $4 $-1 $252 forward single #
point $-1 9.6500000000000004 -5.5999999999999996 -3.7999999999999998 #
ptlist-eye-attrib $-1 $-1 $-1 $149 #
vertex $-1 $181 $253 #
straight-curve $-1 9.6500000000000004 -3.7999999999999998 -5.5999999999999996 -0 0 1 I I #
render-rbase-attrib $-1 $-1 $156 $83 $254 $-1 0 2 0 -1 0 -1 0 0 -0 -0 -1 0 -10 0 1 rotate no_reflect no_shear #
rgb_color-st-attrib $-1 $255 $157 $117 0.85098039215686272 0.83921568627450982 0.85882352941176465 #
fmesh-eye-attrib $-1 $256 $-1 $158 #
face $257 $258 $259 $4 $-1 $201 forward single #
loop $-1 $-1 $260 $158 #
cone-surface $-1 -10 -5.5999999998329653 -5.5999999998329626 1 0 0 0 2.1499999998329651 -1.6703527450090405e-010 1 I I 0 -1 2.1499999998329651 forward I I I I #
loop $-1 $-1 $204 $117 #
coedge $-1 $203 $203 $261 $262 reversed $161 $-1 #
coedge $-1 $204 $204 $162 $205 reversed $202 $-1 #
edge $263 $264 $264 $204 $265 forward #
loop $-1 $266 $163 $267 #
ptlist-eye-attrib $-1 $-1 $-1 $164 #
vertex $-1 $164 $268 #
ellipse-curve $-1 0 0 -10 -0 -1 -0 -2.8500000000000001 0 0 1 I I #
point $-1 -2.8500000000000001 -0.90000000000000002 -10 #
ptlist-eye-attrib $-1 $-1 $-1 $171 #
ellipse-curve $-1 0 -10 -3.7999999999999998 -0 -0 1 0 -5.75 0 1 I I #
coedge $-1 $242 $222 $172 $214 forward $269 $-1 #
edge $270 $216 $245 $213 $271 forward #
ptlist-eye-attrib $-1 $-1 $-1 $173 #
vertex $-1 $223 $272 #
straight-curve $-1 -9.6500000000000004 -18.800000000000001 -3.7999999999999998 0 1 0 I I #
fmesh-eye-attrib $-1 $273 $-1 $174 #
face $274 $275 $269 $4 $-1 $276 forward single #
plane-surface $-1 -9.6500000000000004 -12.199999999999999 -3.7999999999999998 0 0 -1 0 1 0 forward_v I I I I #
coedge $-1 $277 $176 $278 $279 reversed $134 $-1 #
coedge $-1 $213 $280 $176 $223 forward $269 $-1 #
edge $281 $282 $216 $222 $283 forward #
coedge $-1 $177 $227 $284 $285 reversed $134 $-1 #
coedge $-1 $286 $180 $177 $226 forward $234 $-1 #
edge $287 $183 $288 $225 $289 forward #
coedge $-1 $224 $178 $290 $291 reversed $134 $-1 #
coedge $-1 $178 $292 $293 $294 forward $134 $-1 #
coedge $-1 $295 $296 $178 $230 reversed $297 $-1 #
edge $298 $299 $300 $178 $301 forward #
fmesh-eye-attrib $-1 $302 $-1 $179 #
plane-surface $-1 -9.6500000000000004 -6.6805257395751925 -6.6805257395751925 1 0 0 0 -1 0 forward_v I I I I #
coedge $-1 $180 $286 $187 $240 forward $234 $-1 #
loop $-1 $-1 $233 $303 #
ptlist-eye-attrib $-1 $-1 $-1 $181 #
straight-curve $-1 -9.6500000000000004 -3.7999999999999998 -18.800000000000001 1 0 0 I I #
point $-1 -9.6500000000000004 -3.7999999999999998 -18.800000000000001 #
rgb_color-st-attrib $-1 $304 $185 $139 0.85098039215686272 0.83921568627450982 0.85882352941176465 #
coedge $-1 $305 $187 $306 $307 reversed $145 $-1 #
edge $308 $309 $194 $233 $310 forward #
coedge $-1 $188 $247 $311 $312 reversed $145 $-1 #
coedge $-1 $280 $213 $188 $243 forward $269 $-1 #
edge $313 $245 $314 $242 $315 forward #
ptlist-eye-attrib $-1 $-1 $-1 $189 #
vertex $-1 $214 $316 #
straight-curve $-1 9.6500000000000004 -18.800000000000001 -3.7999999999999998 0 -1 0 I I #
coedge $-1 $241 $190 $317 $318 reversed $145 $-1 #
coedge $-1 $190 $319 $320 $321 forward $145 $-1 #
coedge $-1 $322 $323 $190 $250 reversed $324 $-1 #
edge $325 $326 $327 $190 $328 forward #
fmesh-eye-attrib $-1 $329 $-1 $191 #
plane-surface $-1 9.6500000000000004 -6.6805257395751916 -6.6805257395751907 1 0 0 0 -1 0 forward_v I I I I #
point $-1 9.6500000000000004 -3.7999999999999998 -18.800000000000001 #
rh_material-rh_entity $-1 4 5 plain 5 color -4 0.85098039215686272 0.83921568627450982 0.85882352941176465 5 phong 14 ambient factor -2 1 14 diffuse factor -2 0.75 15 specular factor -2 0.5 8 exponent -2 10 14 specular color -4 1 1 1 4 none 4 none #
render-rbase-attrib $-1 $-1 $197 $117 $254 $-1 0 2 0 -1 0 -1 0 0 -0 -0 -1 0 -10 0 1 rotate no_reflect no_shear #
rgb_color-st-attrib $-1 $330 $198 $158 0.85098039215686272 0.83921568627450982 0.85882352941176465 #
fmesh-eye-attrib $-1 $331 $-1 $199 #
face $332 $333 $334 $4 $-1 $335 forward single #
loop $-1 $-1 $336 $199 #
coedge $-1 $337 $338 $339 $340 reversed $200 $-1 #
coedge $-1 $261 $261 $203 $262 forward $341 $-1 #
edge $342 $343 $343 $261 $344 forward #
ptlist-eye-attrib $-1 $-1 $-1 $205 #
vertex $-1 $205 $345 #
ellipse-curve $-1 0 -10 -0.90000000000000002 0 0 -1 0 -2.8500000000000001 0 1 I I #
loop $-1 $-1 $290 $267 #
face $346 $347 $206 $4 $-1 $348 forward single #
point $-1 -2.8500000000000001 0 -10 #
loop $-1 $-1 $242 $219 #
ptlist-eye-attrib $-1 $-1 $-1 $214 #
straight-curve $-1 -9.6500000000000004 -18.800000000000001 -3.7999999999999994 1 0 0 I I #
point $-1 -9.6500000000000004 -18.800000000000001 -3.7999999999999994 #
rgb_color-st-attrib $-1 $349 $218 $174 0.85098039215686272 0.83921568627450982 0.85882352941176465 #
fmesh-eye-attrib $-1 $350 $-1 $219 #
face $351 $179 $352 $4 $-1 $353 forward single #
cone-surface $-1 -9.6500000000000004 -18.799999999918544 -2.5999999999185435 1 0 0 0 -1.2000000000814559 -8.1456619227537885e-011 1 I I 0 1 1.2000000000814559 forward I I I I #
coedge $-1 $354 $221 $355 $356 reversed $134 $-1 #
coedge $-1 $357 $358 $221 $279 forward $352 $-1 #
edge $359 $360 $282 $278 $361 forward #
coedge $-1 $222 $242 $357 $362 reversed $269 $-1 #
ptlist-eye-attrib $-1 $-1 $-1 $223 #
vertex $-1 $279 $363 #
ellipse-curve $-1 -9.6500000000000004 -18.799999999918544 -2.5999999999185435 1 0 0 0 -1.2000000000814559 -8.1456619227537885e-011 1 I I #
coedge $-1 $364 $365 $224 $285 forward $366 $-1 #
edge $367 $288 $368 $284 $369 forward #
coedge $-1 $233 $225 $365 $370 forward $234 $-1 #
ptlist-eye-attrib $-1 $-1 $-1 $226 #
vertex $-1 $226 $371 #
ellipse-curve $-1 -9.6500000000000004 -2.5999999999185457 -18.799999999918541 1 0 0 0 -1.2000000000814559 -8.1456619227537885e-011 1 I I #
coedge $-1 $372 $373 $227 $291 forward $266 $-1 #
edge $374 $368 $300 $290 $375 forward #
coedge $-1 $228 $376 $377 $378 forward $134 $-1 #
coedge $-1 $379 $380 $228 $294 reversed $381 $-1 #
edge $382 $383 $299 $228 $384 forward #
coedge $-1 $385 $229 $380 $386 reversed $297 $-1 #
coedge $-1 $229 $385 $372 $387 forward $297 $-1 #
loop $-1 $-1 $229 $388 #
ptlist-eye-attrib $-1 $-1 $-1 $230 #
vertex $-1 $230 $389 #
vertex $-1 $291 $390 #
straight-curve $-1 -9.6500000000000004 -3.9902628697875961 -19.649999999999999 -0 1 0 I I #
rgb_color-st-attrib $-1 $391 $231 $179 0.85098039215686272 0.83921568627450982 0.85882352941176465 #
face $392 $139 $234 $4 $-1 $393 forward single #
render-rbase-attrib $-1 $-1 $238 $139 $7 $-1 0 2 0 -1 0 0 0 -1 1 0 0 -9.6500000000000004 0 0 1 rotate no_reflect no_shear #
coedge $-1 $394 $239 $395 $396 reversed $145 $-1 #
coedge $-1 $365 $364 $239 $307 forward $366 $-1 #
edge $397 $398 $309 $306 $399 forward #
ptlist-eye-attrib $-1 $-1 $-1 $240 #
vertex $-1 $370 $400 #
ellipse-curve $-1 9.6500000000000004 -2.5999999999185457 -18.799999999918541 -1 0 0 0 -1.2000000000814559 -8.1456619227537885e-011 1 I I #
coedge $-1 $358 $357 $241 $312 forward $352 $-1 #
edge $401 $314 $402 $311 $403 forward #
ptlist-eye-attrib $-1 $-1 $-1 $243 #
vertex $-1 $362 $404 #
ellipse-curve $-1 9.6500000000000004 -18.799999999918544 -2.5999999999185435 -1 0 0 0 -1.2000000000814559 -8.1456619227537885e-011 1 I I #
point $-1 9.6500000000000004 -18.800000000000001 -3.7999999999999994 #
coedge $-1 $405 $406 $247 $318 forward $407 $-1 #
edge $408 $402 $327 $317 $409 forward #
coedge $-1 $248 $339 $410 $411 forward $145 $-1 #
coedge $-1 $412 $413 $248 $321 reversed $414 $-1 #
edge $415 $416 $326 $248 $417 forward #
coedge $-1 $418 $249 $413 $419 forward $324 $-1 #
coedge $-1 $249 $418 $405 $420 reversed $324 $-1 #
loop $-1 $-1 $249 $421 #
ptlist-eye-attrib $-1 $-1 $-1 $250 #
vertex $-1 $321 $422 #
vertex $-1 $318 $423 #
straight-curve $-1 9.6499999999999986 -19.649999999999999 -3.9902628697875948 -0 0 1 I I #
rgb_color-st-attrib $-1 $424 $251 $191 0.85098039215686272 0.83921568627450982 0.85882352941176465 #
render-rbase-attrib $-1 $-1 $256 $158 $425 $-1 0 2 0 -1 0 0 0 -1 1 0 0 -10 0 0 1 rotate no_reflect no_shear #
render-rbase-attrib $-1 $426 $257 $199 $425 $-1 0 2 0 -1 0 0 0 -1 1 0 0 -10 0 0 1 rotate no_reflect no_shear #
fmesh-eye-attrib $-1 $427 $-1 $258 #
face $428 $429 $430 $4 $-1 $431 forward single #
loop $-1 $-1 $432 $258 #
plane-surface $-1 -10 -3.4500000000000002 -12.199999999999999 0 -1 0 0 0 -1 forward_v I I I I #
coedge $-1 $433 $434 $376 $435 reversed $259 $-1 #
coedge $-1 $436 $260 $437 $438 forward $200 $-1 #
coedge $-1 $260 $436 $439 $440 reversed $200 $-1 #
coedge $-1 $319 $441 $260 $340 forward $145 $-1 #
edge $442 $443 $444 $339 $445 forward #
loop $-1 $407 $261 $347 #
ptlist-eye-attrib $-1 $-1 $-1 $262 #
vertex $-1 $262 $446 #
ellipse-curve $-1 0 -10 0 -0 -0 -1 0 -2.8500000000000001 0 1 I I #
point $-1 0 -12.85 -0.90000000000000002 #
fmesh-eye-attrib $-1 $447 $-1 $267 #
face $448 $449 $341 $4 $-1 $450 forward single #
plane-surface $-1 -9.6500000000000004 0 -10 0 1 0 0 0 1 forward_v I I I I #
render-rbase-attrib $-1 $-1 $273 $174 $7 $-1 0 2 0 -1 0 0 0 -1 1 0 0 -9.6500000000000004 0 0 1 rotate no_reflect no_shear #
rgb_color-st-attrib $-1 $451 $274 $219 0.85098039215686272 0.83921568627450982 0.85882352941176465 #
fmesh-eye-attrib $-1 $452 $-1 $275 #
loop $-1 $-1 $311 $275 #
plane-surface $-1 -9.6500000000000004 -20 -1.3 0 -1 0 0 0 -1 forward_v I I I I #
coedge $-1 $453 $277 $454 $455 forward $134 $-1 #
coedge $-1 $406 $456 $277 $356 forward $407 $-1 #
edge $457 $458 $360 $355 $459 forward #
coedge $-1 $311 $278 $280 $362 forward $352 $-1 #
coedge $-1 $278 $311 $406 $460 reversed $352 $-1 #
ptlist-eye-attrib $-1 $-1 $-1 $279 #
vertex $-1 $356 $461 #
straight-curve $-1 -9.6500000000000004 -20 0 0 0 -1 I I #
edge $462 $282 $314 $357 $463 forward #
point $-1 -9.6500000000000004 -20 -2.6000000000000001 #
coedge $-1 $306 $284 $373 $464 forward $366 $-1 #
coedge $-1 $284 $306 $286 $370 reversed $366 $-1 #
loop $-1 $-1 $306 $449 #
ptlist-eye-attrib $-1 $-1 $-1 $285 #
vertex $-1 $285 $465 #
straight-curve $-1 -9.6500000000000004 -2.6000000000000001 -20 0 1 0 I I #
edge $466 $288 $309 $286 $467 forward #
point $-1 -9.6500000000000004 -2.6000000000000014 -19.999999999999996 #
coedge $-1 $468 $290 $296 $387 reversed $266 $-1 #
coedge $-1 $290 $395 $364 $464 reversed $266 $-1 #
ptlist-eye-attrib $-1 $-1 $-1 $291 #
straight-curve $-1 -9.6500000000000004 0 -20 0 0 1 I I #
coedge $-1 $292 $469 $336 $435 forward $134 $-1 #
coedge $-1 $470 $471 $292 $378 reversed $472 $-1 #
edge $473 $474 $383 $292 $475 forward #
coedge $-1 $476 $293 $471 $477 reversed $381 $-1 #
coedge $-1 $293 $476 $295 $386 forward $381 $-1 #
loop $-1 $-1 $293 $478 #
ptlist-eye-attrib $-1 $-1 $-1 $294 #
vertex $-1 $294 $479 #
ellipse-curve $-1 -9.6500000000000004 -2.5999999999707528 -18.799999999970755 1 0 0 0 -0.85000000002924425 -2.9242386290206923e-011 1 I I #
coedge $-1 $296 $295 $480 $481 reversed $297 $-1 #
edge $482 $483 $299 $380 $484 forward #
edge $485 $486 $300 $296 $487 forward #
face $488 $478 $297 $4 $-1 $489 forward single #
point $-1 -9.6500000000000004 -2.6000000000000001 -19.649999999999999 #
point $-1 -9.6500000000000004 0 -19.649999999999999 #
render-rbase-attrib $-1 $-1 $302 $179 $7 $-1 0 2 0 -1 0 0 0 -1 1 0 0 -9.6500000000000004 0 0 1 rotate no_reflect no_shear #
fmesh-eye-attrib $-1 $490 $-1 $303 #
cone-surface $-1 -9.6500000000000004 -2.5999999999185457 -18.799999999918541 1 0 0 0 -1.2000000000814559 -8.1456619227537885e-011 1 I I 0 1 1.2000000000814559 forward I I I I #
coedge $-1 $491 $305 $492 $493 forward $145 $-1 #
coedge $-1 $373 $494 $305 $396 forward $266 $-1 #
edge $495 $496 $398 $395 $497 forward #
ptlist-eye-attrib $-1 $-1 $-1 $307 #
vertex $-1 $464 $498 #
straight-curve $-1 9.6500000000000004 -2.6000000000000001 -20 0 -1 0 I I #
point $-1 9.6500000000000004 -2.6000000000000014 -19.999999999999996 #
ptlist-eye-attrib $-1 $-1 $-1 $312 #
vertex $-1 $460 $499 #
straight-curve $-1 9.6500000000000004 -20 0 -0 0 1 I I #
point $-1 9.6500000000000004 -20 -2.6000000000000001 #
coedge $-1 $500 $317 $323 $420 forward $407 $-1 #
coedge $-1 $317 $355 $358 $460 forward $407 $-1 #
loop $-1 $-1 $317 $347 #
ptlist-eye-attrib $-1 $-1 $-1 $318 #
straight-curve $-1 9.6500000000000004 0 0 -0 1 0 I I #
coedge $-1 $439 $501 $319 $411 reversed $502 $-1 #
edge $503 $444 $416 $319 $504 forward #
coedge $-1 $505 $320 $501 $506 forward $414 $-1 #
coedge $-1 $320 $505 $322 $419 reversed $414 $-1 #
loop $-1 $-1 $320 $507 #
ptlist-eye-attrib $-1 $-1 $-1 $321 #
vertex $-1 $411 $508 #
ellipse-curve $-1 9.6499999999999986 -18.799999999970758 -2.5999999999707573 -1 -0 -0 0 -0.85000000002924025 -2.9240609933367523e-011 1 I I #
coedge $-1 $323 $322 $509 $510 forward $324 $-1 #
edge $511 $326 $512 $322 $513 forward #
edge $514 $327 $515 $405 $516 forward #
face $517 $518 $324 $4 $-1 $519 forward single #
point $-1 9.6499999999999986 -19.649999999999999 -2.5999999999999979 #
point $-1 9.6500000000000004 -19.649999999999999 0 #
render-rbase-attrib $-1 $-1 $329 $191 $7 $-1 0 2 0 -1 0 0 0 -1 1 0 0 -9.6500000000000004 0 0 1 rotate no_reflect no_shear #
rh_material-rh_entity $-1 4 5 plain 5 color -4 0.85098039215686272 0.83921568627450982 0.85882352941176465 5 phong 14 ambient factor -2 1 14 diffuse factor -2 0.75 15 specular factor -2 0.5 8 exponent -2 10 14 specular color -4 1 1 1 4 none 4 none #
rgb_color-st-attrib $-1 $-1 $331 $199 0.85098039215686272 0.83921568627450982 0.85882352941176465 #
rgb_color-st-attrib $-1 $520 $332 $258 0.85098039215686272 0.83921568627450982 0.85882352941176465 #
fmesh-eye-attrib $-1 $521 $-1 $333 #
face $522 $523 $524 $4 $-1 $525 forward single #
loop $-1 $-1 $526 $333 #
plane-surface $-1 -10 -12.199999999999999 -3.4500000000000002 0 0 -1 -0 1 0 forward_v I I I I #
coedge $-1 $527 $437 $441 $528 reversed $334 $-1 #
coedge $-1 $529 $336 $530 $531 reversed $259 $-1 #
coedge $-1 $336 $529 $470 $532 forward $259 $-1 #
edge $533 $534 $474 $376 $535 forward #
coedge $-1 $338 $337 $536 $537 forward $200 $-1 #
coedge $-1 $432 $538 $337 $438 reversed $334 $-1 #
edge $539 $443 $540 $337 $541 forward #
coedge $-1 $542 $410 $338 $440 forward $502 $-1 #
edge $543 $444 $544 $439 $545 forward #
coedge $-1 $339 $491 $432 $528 forward $145 $-1 #
ptlist-eye-attrib $-1 $-1 $-1 $340 #
vertex $-1 $528 $546 #
vertex $-1 $340 $547 #
ellipse-curve $-1 9.6499999999999986 -5.5999999998329653 -5.5999999998329626 1 0 0 0 2.1499999998329651 -1.6703527450090405e-010 1 I I #
point $-1 0 -12.85 0 #
render-rbase-attrib $-1 $548 $346 $267 $7 $-1 0 2 0 -1 0 0 0 -1 1 0 0 -9.6500000000000004 0 0 1 rotate no_reflect no_shear #
fmesh-eye-attrib $-1 $549 $-1 $347 #
face $550 $303 $366 $4 $-1 $551 forward single #
plane-surface $-1 -9.6500000000000004 -10 0 0 0 1 0 -1 0 forward_v I I I I #
render-rbase-attrib $-1 $-1 $350 $219 $7 $-1 0 2 0 -1 0 0 0 -1 1 0 0 -9.6500000000000004 0 0 1 rotate no_reflect no_shear #
rgb_color-st-attrib $-1 $552 $351 $275 0.85098039215686272 0.83921568627450982 0.85882352941176465 #
coedge $-1 $469 $354 $553 $554 forward $134 $-1 #
coedge $-1 $555 $556 $354 $455 reversed $557 $-1 #
edge $558 $458 $559 $354 $560 forward #
coedge $-1 $355 $561 $555 $562 forward $407 $-1 #
ptlist-eye-attrib $-1 $-1 $-1 $356 #
vertex $-1 $356 $563 #
straight-curve $-1 -9.6500000000000004 0 0 0 -1 0 I I #
edge $564 $360 $402 $406 $565 forward #
point $-1 -9.6500000000000004 -20 0 #
ptlist-eye-attrib $-1 $-1 $-1 $362 #
straight-curve $-1 -9.6500000000000004 -20 -2.6000000000000001 1 0 0 I I #
edge $566 $368 $398 $364 $567 forward #
point $-1 -9.6500000000000004 0 -20 #
ptlist-eye-attrib $-1 $-1 $-1 $370 #
straight-curve $-1 -9.6500000000000004 -2.6000000000000014 -19.999999999999996 1 0 0 I I #
coedge $-1 $568 $372 $569 $570 reversed $266 $-1 #
coedge $-1 $376 $453 $526 $571 forward $134 $-1 #
coedge $-1 $572 $377 $434 $532 reversed $472 $-1 #
coedge $-1 $377 $572 $379 $477 forward $472 $-1 #
loop $-1 $-1 $377 $573 #
ptlist-eye-attrib $-1 $-1 $-1 $378 #
vertex $-1 $378 $574 #
straight-curve $-1 -9.6500000000000004 -3.4500000000000002 -9.4402628697875954 0 0 -1 I I #
coedge $-1 $380 $379 $575 $576 forward $381 $-1 #
edge $577 $578 $383 $471 $579 forward #
face $580 $573 $381 $4 $-1 $525 forward single #
point $-1 -9.6500000000000004 -3.4499999999999971 -18.799999999999997 #
coedge $-1 $575 $569 $385 $481 forward $581 $-1 #
edge $582 $486 $483 $480 $583 forward #
ptlist-eye-attrib $-1 $-1 $-1 $386 #
vertex $-1 $481 $584 #
straight-curve $-1 -10 -2.6000000000000001 -19.649999999999999 1 0 0 I I #
ptlist-eye-attrib $-1 $-1 $-1 $387 #
vertex $-1 $570 $585 #
straight-curve $-1 -10 0 -19.649999999999999 1 0 0 I I #
fmesh-eye-attrib $-1 $586 $-1 $388 #
plane-surface $-1 -10 -1.3 -19.649999999999999 0 0 -1 -0 1 0 forward_v I I I I #
rgb_color-st-attrib $-1 $587 $392 $303 0.85098039215686272 0.83921568627450982 0.85882352941176465 #
coedge $-1 $441 $394 $588 $589 forward $145 $-1 #
coedge $-1 $590 $591 $394 $493 reversed $592 $-1 #
edge $593 $496 $594 $394 $595 forward #
coedge $-1 $395 $596 $590 $597 reversed $266 $-1 #
ptlist-eye-attrib $-1 $-1 $-1 $396 #
vertex $-1 $396 $598 #
straight-curve $-1 9.6500000000000004 0 -20 0 0 -1 I I #
point $-1 9.6500000000000004 0 -20 #
point $-1 9.6500000000000004 -20 0 #
coedge $-1 $599 $405 $600 $601 forward $407 $-1 #
coedge $-1 $410 $542 $412 $506 reversed $502 $-1 #
loop $-1 $-1 $410 $602 #
ptlist-eye-attrib $-1 $-1 $-1 $411 #
straight-curve $-1 9.6499999999999986 -9.4402628697875954 -3.4500000000000002 0 -1 0 I I #
coedge $-1 $413 $412 $603 $604 forward $414 $-1 #
edge $605 $416 $606 $412 $607 forward #
face $608 $421 $414 $4 $-1 $609 forward single #
point $-1 9.6499999999999986 -18.800000000000001 -3.4500000000000002 #
coedge $-1 $603 $600 $418 $510 reversed $610 $-1 #
edge $611 $512 $515 $418 $612 forward #
ptlist-eye-attrib $-1 $-1 $-1 $419 #
vertex $-1 $419 $613 #
straight-curve $-1 -10 -19.649999999999999 -2.5999999999999979 1 0 0 I I #
ptlist-eye-attrib $-1 $-1 $-1 $420 #
vertex $-1 $420 $614 #
straight-curve $-1 -10 -19.649999999999999 0 1 0 0 I I #
fmesh-eye-attrib $-1 $615 $-1 $421 #
face $616 $617 $610 $4 $-1 $618 forward single #
plane-surface $-1 -10 -19.649999999999999 -1.2999999999999989 0 -1 0 0 0 -1 forward_v I I I I #
render-rbase-attrib $-1 $-1 $427 $258 $425 $-1 0 2 0 -1 0 0 0 -1 1 0 0 -10 0 0 1 rotate no_reflect no_shear #
rgb_color-st-attrib $-1 $619 $428 $333 0.85098039215686272 0.83921568627450982 0.85882352941176465 #
fmesh-eye-attrib $-1 $620 $-1 $429 #
face $621 $622 $623 $4 $-1 $609 forward single #
loop $-1 $-1 $588 $429 #
cone-surface $-1 -10 -2.5999999999707528 -18.799999999970755 1 0 0 0 -0.85000000002924425 -2.9242386290206923e-011 1 I I 0 1 0.85000000002924425 forward I I I I #
coedge $-1 $624 $530 $469 $571 reversed $430 $-1 #
coedge $-1 $538 $432 $625 $626 forward $334 $-1 #
edge $627 $628 $443 $441 $629 forward #
coedge $-1 $434 $433 $630 $631 reversed $259 $-1 #
coedge $-1 $526 $632 $433 $531 forward $430 $-1 #
edge $633 $634 $534 $530 $545 forward #
edge $635 $636 $474 $434 $541 forward #
ptlist-eye-attrib $-1 $-1 $-1 $435 #
vertex $-1 $435 $637 #
ellipse-curve $-1 -9.6500000000000004 -5.5999999998329653 -5.5999999998329626 -1 -0 -0 0 2.1499999998329651 -1.6703527450090405e-010 1 I I #
coedge $-1 $638 $639 $436 $537 reversed $610 $-1 #
edge $640 $540 $544 $436 $641 forward #
coedge $-1 $437 $527 $638 $642 forward $334 $-1 #
ptlist-eye-attrib $-1 $-1 $-1 $438 #
vertex $-1 $438 $643 #
straight-curve $-1 -10 -3.4500000000000002 -5.5999999999999996 1 0 0 I I #
coedge $-1 $501 $439 $639 $644 forward $502 $-1 #
ptlist-eye-attrib $-1 $-1 $-1 $440 #
vertex $-1 $440 $645 #
straight-curve $-1 -10 -5.5999999999999988 -3.4499999999999975 1 0 0 I I #
point $-1 9.6499999999999986 -3.4500000000000002 -5.5999999999999996 #
point $-1 9.6499999999999986 -5.5999999999999988 -3.4499999999999975 #
rgb_color-st-attrib $-1 $-1 $447 $267 0.85098039215686272 0.83921568627450982 0.85882352941176465 #
render-rbase-attrib $-1 $646 $448 $347 $7 $-1 0 2 0 -1 0 0 0 -1 1 0 0 -9.6500000000000004 0 0 1 rotate no_reflect no_shear #
fmesh-eye-attrib $-1 $647 $-1 $449 #
plane-surface $-1 -9.6500000000000004 -1.3000000000000007 -20 0 0 -1 0 1 0 forward_v I I I I #
render-rbase-attrib $-1 $-1 $452 $275 $7 $-1 0 2 0 -1 0 0 0 -1 1 0 0 -9.6500000000000004 0 0 1 rotate no_reflect no_shear #
coedge $-1 $648 $649 $453 $554 reversed $623 $-1 #
edge $650 $559 $651 $453 $652 forward #
coedge $-1 $653 $454 $456 $562 reversed $557 $-1 #
coedge $-1 $454 $653 $648 $654 forward $557 $-1 #
loop $-1 $-1 $454 $655 #
ptlist-eye-attrib $-1 $-1 $-1 $455 #
vertex $-1 $554 $656 #
straight-curve $-1 -9.6500000000000004 -19.649999999999999 -3.9902628697875957 0 0 -1 I I #
coedge $-1 $456 $599 $657 $658 reversed $407 $-1 #
edge $659 $660 $458 $456 $516 forward #
point $-1 -9.6500000000000004 -19.649999999999999 0 #
ptlist-eye-attrib $-1 $-1 $-1 $460 #
straight-curve $-1 -9.6500000000000004 -20 0 1 0 0 I I #
ptlist-eye-attrib $-1 $-1 $-1 $464 #
straight-curve $-1 -9.6500000000000004 0 -20 1 0 0 I I #
coedge $-1 $596 $468 $599 $661 forward $266 $-1 #
coedge $-1 $480 $657 $468 $570 forward $581 $-1 #
edge $662 $663 $486 $569 $664 forward #
edge $665 $651 $534 $469 $666 forward #
coedge $-1 $471 $470 $667 $668 reversed $472 $-1 #
face $669 $602 $472 $4 $-1 $335 forward single #
point $-1 -9.6500000000000004 -3.4500000000000002 -5.5999999999999996 #
coedge $-1 $667 $480 $476 $576 reversed $581 $-1 #
edge $670 $578 $483 $575 $671 forward #
ptlist-eye-attrib $-1 $-1 $-1 $477 #
vertex $-1 $576 $672 #
straight-curve $-1 -10 -3.4499999999999971 -18.799999999999997 1 0 0 I I #
fmesh-eye-attrib $-1 $673 $-1 $478 #
loop $-1 $-1 $569 $617 #
ptlist-eye-attrib $-1 $-1 $-1 $481 #
straight-curve $-1 -10 0 -19.649999999999999 0 -1 0 I I #
point $-1 -10 -2.6000000000000001 -19.649999999999999 #
point $-1 -10 0 -19.649999999999999 #
rgb_color-st-attrib $-1 $674 $488 $388 0.85098039215686272 0.83921568627450982 0.85882352941176465 #
render-rbase-attrib $-1 $-1 $490 $303 $7 $-1 0 2 0 -1 0 0 0 -1 1 0 0 -9.6500000000000004 0 0 1 rotate no_reflect no_shear #
coedge $-1 $675 $625 $491 $589 reversed $524 $-1 #
edge $676 $594 $628 $491 $677 forward #
coedge $-1 $678 $492 $494 $597 forward $592 $-1 #
coedge $-1 $492 $678 $675 $679 reversed $592 $-1 #
loop $-1 $-1 $492 $622 #
ptlist-eye-attrib $-1 $-1 $-1 $493 #
vertex $-1 $493 $680 #
straight-curve $-1 9.6499999999999986 -3.9902628697875957 -19.649999999999999 0 -1 0 I I #
coedge $-1 $494 $568 $681 $682 forward $266 $-1 #
edge $683 $496 $684 $590 $487 forward #
point $-1 9.6500000000000004 0 -19.649999999999999 #
coedge $-1 $561 $500 $568 $661 reversed $407 $-1 #
coedge $-1 $509 $681 $500 $601 reversed $610 $-1 #
edge $685 $515 $686 $500 $687 forward #
face $688 $507 $502 $4 $-1 $431 forward single #
coedge $-1 $639 $509 $505 $604 reversed $610 $-1 #
edge $689 $606 $512 $505 $690 forward #
ptlist-eye-attrib $-1 $-1 $-1 $506 #
vertex $-1 $506 $691 #
straight-curve $-1 -10 -18.800000000000001 -3.4500000000000002 1 0 0 I I #
fmesh-eye-attrib $-1 $692 $-1 $507 #
cone-surface $-1 -10 -18.799999999970758 -2.5999999999707573 1 0 0 0 -0.85000000002924025 -2.9240609933367523e-011 1 I I 0 1 0.85000000002924025 forward I I I I #
loop $-1 $-1 $693 $518 #
ptlist-eye-attrib $-1 $-1 $-1 $510 #
straight-curve $-1 10 -19.649999999999999 -2.6000000000000001 0 0 1 I I #
point $-1 10 -19.649999999999999 -2.5999999999999979 #
point $-1 10 -19.649999999999999 0 #
rgb_color-st-attrib $-1 $694 $517 $421 0.85098039215686272 0.83921568627450982 0.85882352941176465 #
fmesh-eye-attrib $-1 $695 $-1 $518 #
face $696 $267 $581 $4 $-1 $697 reversed single #
plane-surface $-1 10 -6.4782667265759333 -6.4782667265759315 1 0 0 0 -1 0 forward_v I I I I #
render-rbase-attrib $-1 $-1 $521 $333 $425 $-1 0 2 0 -1 0 0 0 -1 1 0 0 -10 0 0 1 rotate no_reflect no_shear #
rgb_color-st-attrib $-1 $698 $522 $429 0.85098039215686272 0.83921568627450982 0.85882352941176465 #
fmesh-eye-attrib $-1 $699 $-1 $523 #
face $700 $655 $592 $4 $-1 $489 forward single #
loop $-1 $-1 $553 $523 #
coedge $-1 $632 $526 $649 $701 reversed $430 $-1 #
coedge $-1 $588 $702 $527 $626 reversed $524 $-1 #
edge $703 $628 $704 $527 $579 forward #
ptlist-eye-attrib $-1 $-1 $-1 $528 #
vertex $-1 $589 $705 #
straight-curve $-1 9.6499999999999986 -3.4499999999999997 -9.4402628697875954 -0 0 1 I I #
coedge $-1 $706 $667 $529 $631 forward $581 $-1 #
edge $707 $636 $634 $630 $708 forward #
coedge $-1 $530 $624 $706 $709 reversed $430 $-1 #
ptlist-eye-attrib $-1 $-1 $-1 $531 #
vertex $-1 $631 $710 #
ptlist-eye-attrib $-1 $-1 $-1 $532 #
vertex $-1 $668 $711 #
point $-1 -9.6500000000000004 -5.5999999999999988 -3.4499999999999975 #
coedge $-1 $712 $536 $538 $642 reversed $610 $-1 #
coedge $-1 $536 $603 $542 $644 reversed $610 $-1 #
ptlist-eye-attrib $-1 $-1 $-1 $537 #
ellipse-curve $-1 10 -5.5999999998329653 -5.5999999998329626 1 0 0 0 2.1499999998329651 -1.6703527450090405e-010 1 I I #
edge $713 $704 $540 $538 $714 forward #
point $-1 10 -3.4500000000000002 -5.5999999999999996 #
edge $715 $544 $606 $542 $716 forward #
point $-1 10 -5.5999999999999988 -3.4499999999999975 #
rgb_color-st-attrib $-1 $-1 $549 $347 0.85098039215686272 0.83921568627450982 0.85882352941176465 #
rgb_color-st-attrib $-1 $717 $550 $449 0.85098039215686272 0.83921568627450982 0.85882352941176465 #
coedge $-1 $718 $553 $556 $654 reversed $623 $-1 #
coedge $-1 $553 $718 $624 $701 forward $623 $-1 #
ptlist-eye-attrib $-1 $-1 $-1 $554 #
vertex $-1 $571 $719 #
ellipse-curve $-1 -9.6500000000000004 -18.799999999970758 -2.5999999999707573 1 0 0 0 -0.85000000002924025 -2.9240609933367523e-011 1 I I #
coedge $-1 $556 $555 $720 $721 reversed $557 $-1 #
edge $722 $723 $559 $556 $513 forward #
face $724 $388 $557 $4 $-1 $519 forward single #
point $-1 -9.6500000000000004 -19.649999999999999 -2.5999999999999979 #
coedge $-1 $569 $720 $561 $658 forward $581 $-1 #
edge $725 $660 $663 $657 $726 forward #
ptlist-eye-attrib $-1 $-1 $-1 $562 #
vertex $-1 $721 $727 #
edge $728 $663 $686 $568 $729 forward #
ptlist-eye-attrib $-1 $-1 $-1 $570 #
vertex $-1 $570 $730 #
straight-curve $-1 -10 0 0 0 0 -1 I I #
ptlist-eye-attrib $-1 $-1 $-1 $571 #
straight-curve $-1 -9.6500000000000004 -9.4402628697875954 -3.4500000000000002 -0 1 0 I I #
coedge $-1 $630 $575 $572 $668 forward $581 $-1 #
edge $731 $578 $636 $667 $732 forward #
fmesh-eye-attrib $-1 $733 $-1 $573 #
ptlist-eye-attrib $-1 $-1 $-1 $576 #
ellipse-curve $-1 -10 -2.5999999999707528 -18.799999999970755 1 0 0 0 -0.85000000002924425 -2.9242386290206923e-011 1 I I #
point $-1 -10 -3.4499999999999971 -18.799999999999997 #
rgb_color-st-attrib $-1 $734 $580 $478 0.85098039215686272 0.83921568627450982 0.85882352941176465 #
render-rbase-attrib $-1 $-1 $586 $388 $425 $-1 0 2 0 -1 0 0 0 -1 1 0 0 -10 0 0 1 rotate no_reflect no_shear #
coedge $-1 $702 $588 $591 $679 forward $524 $-1 #
ptlist-eye-attrib $-1 $-1 $-1 $589 #
ellipse-curve $-1 9.6499999999999986 -2.5999999999707528 -18.799999999970755 -1 -0 -0 0 -0.85000000002924425 -2.9242386290206923e-011 1 I I #
coedge $-1 $591 $590 $693 $735 forward $592 $-1 #
edge $736 $594 $737 $675 $484 forward #
point $-1 9.6499999999999986 -2.6000000000000001 -19.649999999999999 #
coedge $-1 $600 $693 $596 $682 reversed $610 $-1 #
edge $738 $686 $684 $596 $739 forward #
ptlist-eye-attrib $-1 $-1 $-1 $597 #
vertex $-1 $597 $740 #
ptlist-eye-attrib $-1 $-1 $-1 $601 #
vertex $-1 $661 $741 #
straight-curve $-1 10 -19.649999999999999 0 0 1 0 I I #
fmesh-eye-attrib $-1 $742 $-1 $602 #
ptlist-eye-attrib $-1 $-1 $-1 $604 #
ellipse-curve $-1 10 -18.799999999970758 -2.5999999999707573 -1 0 0 0 -0.85000000002924025 -2.9240609933367523e-011 1 I I #
point $-1 10 -18.800000000000001 -3.4500000000000002 #
rgb_color-st-attrib $-1 $743 $608 $507 0.85098039215686272 0.83921568627450982 0.85882352941176465 #
coedge $-1 $681 $712 $678 $735 reversed $610 $-1 #
render-rbase-attrib $-1 $-1 $615 $421 $425 $-1 0 2 0 -1 0 0 0 -1 1 0 0 -10 0 0 1 rotate no_reflect no_shear #
rgb_color-st-attrib $-1 $744 $616 $518 0.85098039215686272 0.83921568627450982 0.85882352941176465 #
fmesh-eye-attrib $-1 $745 $-1 $617 #
plane-surface $-1 -10 -6.4782667265759333 -6.4782667265759324 1 0 0 0 -1 0 forward_v I I I I #
render-rbase-attrib $-1 $-1 $620 $429 $425 $-1 0 2 0 -1 0 0 0 -1 1 0 0 -10 0 0 1 rotate no_reflect no_shear #
rgb_color-st-attrib $-1 $746 $621 $523 0.85098039215686272 0.83921568627450982 0.85882352941176465 #
fmesh-eye-attrib $-1 $747 $-1 $622 #
edge $748 $749 $651 $649 $607 forward #
coedge $-1 $625 $675 $712 $750 forward $524 $-1 #
ptlist-eye-attrib $-1 $-1 $-1 $626 #
vertex $-1 $626 $751 #
point $-1 9.6499999999999986 -3.4499999999999971 -18.799999999999997 #
coedge $-1 $752 $630 $632 $709 forward $581 $-1 #
ptlist-eye-attrib $-1 $-1 $-1 $631 #
ellipse-curve $-1 -10 -5.5999999998329653 -5.5999999998329626 1 0 0 0 2.1499999998329651 -1.6703527450090405e-010 1 I I #
edge $753 $634 $749 $706 $754 forward #
point $-1 -10 -5.5999999999999988 -3.4499999999999975 #
point $-1 -10 -3.4500000000000002 -5.5999999999999996 #
coedge $-1 $693 $638 $702 $750 reversed $610 $-1 #
ptlist-eye-attrib $-1 $-1 $-1 $642 #
straight-curve $-1 10 -3.4500000000000002 -18.800000000000001 0 0 1 I I #
ptlist-eye-attrib $-1 $-1 $-1 $644 #
straight-curve $-1 10 -5.5999999999999996 -3.4500000000000002 0 -1 0 I I #
render-rbase-attrib $-1 $-1 $647 $449 $7 $-1 0 2 0 -1 0 0 0 -1 1 0 0 -9.6500000000000004 0 0 1 rotate no_reflect no_shear #
coedge $-1 $649 $648 $752 $755 forward $623 $-1 #
point $-1 -9.6500000000000004 -18.800000000000001 -3.4500000000000002 #
coedge $-1 $657 $752 $653 $721 forward $581 $-1 #
edge $756 $723 $660 $720 $757 forward #
ptlist-eye-attrib $-1 $-1 $-1 $654 #
vertex $-1 $755 $758 #
fmesh-eye-attrib $-1 $759 $-1 $655 #
ptlist-eye-attrib $-1 $-1 $-1 $658 #
straight-curve $-1 -10 -19.649999999999999 0 0 1 0 I I #
point $-1 -10 -19.649999999999999 0 #
ptlist-eye-attrib $-1 $-1 $-1 $661 #
straight-curve $-1 -9.6500000000000004 0 0 1 0 0 I I #
point $-1 -10 0 0 #
ptlist-eye-attrib $-1 $-1 $-1 $668 #
straight-curve $-1 -10 -3.4500000000000002 -18.800000000000001 0 0 1 I I #
rgb_color-st-attrib $-1 $760 $669 $573 0.85098039215686272 0.83921568627450982 0.85882352941176465 #
render-rbase-attrib $-1 $-1 $673 $478 $425 $-1 0 2 0 -1 0 0 0 -1 1 0 0 -10 0 0 1 rotate no_reflect no_shear #
edge $761 $684 $737 $678 $762 forward #
ptlist-eye-attrib $-1 $-1 $-1 $679 #
vertex $-1 $679 $763 #
ptlist-eye-attrib $-1 $-1 $-1 $682 #
straight-curve $-1 10 0 0 0 0 -1 I I #
point $-1 10 0 -19.649999999999999 #
point $-1 10 0 0 #
rgb_color-st-attrib $-1 $764 $688 $602 0.85098039215686272 0.83921568627450982 0.85882352941176465 #
render-rbase-attrib $-1 $-1 $692 $507 $425 $-1 0 2 0 -1 0 0 0 -1 1 0 0 -10 0 0 1 rotate no_reflect no_shear #
render-rbase-attrib $-1 $-1 $695 $518 $425 $-1 0 2 0 -1 0 0 0 -1 1 0 0 -10 0 0 1 rotate no_reflect no_shear #
rgb_color-st-attrib $-1 $765 $696 $617 0.85098039215686272 0.83921568627450982 0.85882352941176465 #
render-rbase-attrib $-1 $-1 $699 $523 $425 $-1 0 2 0 -1 0 0 0 -1 1 0 0 -10 0 0 1 rotate no_reflect no_shear #
rgb_color-st-attrib $-1 $766 $700 $622 0.85098039215686272 0.83921568627450982 0.85882352941176465 #
ptlist-eye-attrib $-1 $-1 $-1 $701 #
vertex $-1 $709 $767 #
edge $768 $737 $704 $702 $769 forward #
point $-1 10 -3.4499999999999971 -18.799999999999997 #
coedge $-1 $720 $706 $718 $755 reversed $581 $-1 #
ptlist-eye-attrib $-1 $-1 $-1 $709 #
straight-curve $-1 -10 -5.5999999999999996 -3.4500000000000002 0 -1 0 I I #
edge $770 $723 $749 $752 $771 forward #
ptlist-eye-attrib $-1 $-1 $-1 $721 #
straight-curve $-1 -10 -19.649999999999999 -2.6000000000000001 0 0 1 I I #
point $-1 -10 -19.649999999999999 -2.5999999999999979 #
rgb_color-st-attrib $-1 $772 $724 $655 0.85098039215686272 0.83921568627450982 0.85882352941176465 #
render-rbase-attrib $-1 $-1 $733 $573 $425 $-1 0 2 0 -1 0 0 0 -1 1 0 0 -10 0 0 1 rotate no_reflect no_shear #
ptlist-eye-attrib $-1 $-1 $-1 $735 #
straight-curve $-1 10 0 -19.649999999999999 0 -1 0 I I #
point $-1 10 -2.6000000000000001 -19.649999999999999 #
render-rbase-attrib $-1 $-1 $742 $602 $425 $-1 0 2 0 -1 0 0 0 -1 1 0 0 -10 0 0 1 rotate no_reflect no_shear #
render-rbase-attrib $-1 $-1 $745 $617 $425 $-1 0 2 0 -1 0 0 0 -1 1 0 0 -10 0 0 1 rotate no_reflect no_shear #
render-rbase-attrib $-1 $-1 $747 $622 $425 $-1 0 2 0 -1 0 0 0 -1 1 0 0 -10 0 0 1 rotate no_reflect no_shear #
point $-1 -10 -18.800000000000001 -3.4500000000000002 #
ptlist-eye-attrib $-1 $-1 $-1 $750 #
ellipse-curve $-1 10 -2.5999999999707528 -18.799999999970755 -1 0 0 0 -0.85000000002924425 -2.9242386290206923e-011 1 I I #
ptlist-eye-attrib $-1 $-1 $-1 $755 #
ellipse-curve $-1 -10 -18.799999999970758 -2.5999999999707573 1 0 0 0 -0.85000000002924025 -2.9240609933367523e-011 1 I I #
render-rbase-attrib $-1 $-1 $759 $655 $425 $-1 0 2 0 -1 0 0 0 -1 1 0 0 -10 0 0 1 rotate no_reflect no_shear #
End-of-ACIS-data 