400 0 1 0           
8 KiM GmbH 12 ACIS 30.0 NT 24 Wed Jan 15 16:07:09 2025 
1 9.9999999999999995e-007 1e-010 
body $1 $2 $-1 $-1 #
string_attrib-name_attrib-gen-attrib $-1 $3 $-1 $0 keep keep_kept ignore 17 ATTRIB_XACIS_NAME 31 item_0002618_Nutenstein 8 St M8 #
lump $-1 $-1 $4 $0 #
rgb_color-st-attrib $-1 $5 $1 $0 0.792156862745098 0.88235294117647056 1 #
shell $-1 $-1 $-1 $6 $-1 $2 #
render-rbase-attrib $-1 $-1 $3 $0 $7 $-1 0 1 1 0 0 0 1 0 0 0 1 0 0 0 1 no_rotate no_reflect no_shear #
face $8 $9 $10 $4 $-1 $11 reversed single #
rh_material-rh_entity $-1 4 5 plain 5 color -4 0.792156862745098 0.88235294117647056 1 5 phong 14 ambient factor -2 1 14 diffuse factor -2 0.75 15 specular factor -2 0.5 8 exponent -2 10 14 specular color -4 1 1 1 4 none 4 none #
fmesh-eye-attrib $-1 $12 $-1 $6 #
face $13 $14 $15 $4 $-1 $16 forward single #
loop $-1 $17 $18 $6 #
cone-surface $-1 0 0 3.6500000000000004 0 0 -1 -4 0 0 1 I I 0 1 4 forward I I I I #
render-rbase-attrib $-1 $19 $8 $6 $20 $-1 0 2 -1 0 0 0 1 0 0 0 -1 0 0 8.3000000000000007 1 rotate no_reflect no_shear #
fmesh-eye-attrib $-1 $21 $-1 $9 #
face $22 $23 $24 $4 $-1 $25 forward single #
loop $-1 $-1 $26 $9 #
cone-surface $-1 -8.1088393599999655 7.5 -5.5473886499999896 0 -1 0 15.008839359886071 -0 5.5473886499578864 1 I I 0 1 16.001211821751092 forward I I I I #
loop $-1 $-1 $27 $6 #
coedge $-1 $18 $18 $28 $29 reversed $10 $-1 #
rgb_color-st-attrib $-1 $-1 $12 $6 0.792156862745098 0.88235294117647056 1 #
rh_material-rh_entity $-1 4 5 plain 5 color -4 0.792156862745098 0.88235294117647056 1 5 phong 14 ambient factor -2 1 14 diffuse factor -2 0.75 15 specular factor -2 0.5 8 exponent -2 10 14 specular color -4 1 1 1 4 none 4 none #
render-rbase-attrib $-1 $30 $13 $9 $7 $-1 0 2 -1 0 0 0 0 -1 -0 -1 -0 0 7.5 0 1 rotate no_reflect no_shear #
fmesh-eye-attrib $-1 $31 $-1 $14 #
face $32 $33 $34 $4 $-1 $35 forward single #
loop $-1 $-1 $36 $14 #
cone-surface $-1 0 7.5 3.2999999999999989 0 -1 0 2.6919239608712018 -0 2.9586391109575203 1 I I 0 1 4.0000000000000009 forward I I I I #
coedge $-1 $37 $38 $39 $40 forward $15 $-1 #
coedge $-1 $41 $42 $43 $44 reversed $17 $-1 #
coedge $-1 $28 $28 $18 $29 forward $45 $-1 #
edge $46 $47 $47 $28 $48 forward #
rgb_color-st-attrib $-1 $-1 $21 $9 0.792156862745098 0.88235294117647056 1 #
rgb_color-st-attrib $-1 $49 $22 $14 0.792156862745098 0.88235294117647056 1 #
fmesh-eye-attrib $-1 $50 $-1 $23 #
face $51 $52 $53 $4 $-1 $25 forward single #
loop $-1 $-1 $43 $23 #
cone-surface $-1 8.1088393599998803 7.5 -5.5473886499999026 0 -1 0 -10.800763320081842 0 11.806027760089496 1 I I 0 1 16.001211821872403 forward I I I I #
coedge $-1 $54 $55 $41 $56 forward $24 $-1 #
coedge $-1 $57 $26 $55 $58 forward $15 $-1 #
coedge $-1 $26 $59 $60 $61 forward $15 $-1 #
coedge $-1 $42 $41 $26 $40 reversed $17 $-1 #
edge $62 $63 $64 $26 $65 forward #
coedge $-1 $39 $27 $36 $56 reversed $17 $-1 #
coedge $-1 $27 $39 $66 $67 reversed $17 $-1 #
coedge $-1 $68 $69 $27 $44 forward $34 $-1 #
edge $70 $71 $72 $43 $73 forward #
loop $-1 $74 $28 $52 #
ptlist-eye-attrib $-1 $-1 $-1 $29 #
vertex $-1 $29 $75 #
ellipse-curve $-1 0 0 0 -0 -0 1 -4 0 0 1 I I #
render-rbase-attrib $-1 $-1 $31 $14 $7 $-1 0 2 -1 0 0 0 0 -1 -0 -1 -0 0 7.5 0 1 rotate no_reflect no_shear #
rgb_color-st-attrib $-1 $76 $32 $23 0.792156862745098 0.88235294117647056 1 #
fmesh-eye-attrib $-1 $77 $-1 $33 #
face $78 $79 $45 $4 $-1 $80 forward single #
loop $-1 $-1 $66 $33 #
coedge $-1 $81 $36 $69 $82 forward $24 $-1 #
coedge $-1 $36 $81 $37 $58 reversed $24 $-1 #
edge $83 $64 $71 $36 $84 forward #
coedge $-1 $85 $37 $86 $87 forward $15 $-1 #
edge $88 $64 $89 $37 $90 forward #
coedge $-1 $38 $85 $91 $92 forward $15 $-1 #
coedge $-1 $93 $66 $38 $61 reversed $53 $-1 #
edge $94 $95 $63 $38 $90 forward #
ptlist-eye-attrib $-1 $-1 $-1 $40 #
vertex $-1 $67 $96 #
vertex $-1 $58 $97 #
intcurve-curve $-1 forward { surfintcur nubs 3 open 13 
	1.461690253178398 3 2.1925353797675968 2 2.9233805063567959 2 3.4762786175807721 2 4.0291767288047478 2 
	4.5820748400287235 2 5.1349729512526991 2 5.6878710624766757 2 6.2407691737006523 2 6.7936672849246289 2 
	7.3465653961486064 2 8.0774105227378055 2 8.8082556493270037 3 
	2.5651090357888902 3.0692369792041458 6.3734169187769529 
	2.7315866137369191 2.930103637564264 6.2243520721368331 
	2.8878669818316993 2.7762784609276925 6.0780361393119771 
	3.1724072912098791 2.4460845804081321 5.8021278989813849 
	3.3006730579509025 2.2696818079342584 5.6725823739259553 
	3.4970066468199232 1.94864388058242 5.4688705294053008 
	3.5782498239852609 1.7966402710868592 5.3824905711424984 
	3.7239056013795957 1.4711611524721984 5.224633447237907 
	3.7883078920833597 1.2976535324342406 5.1532129840088681 
	3.8931153357346622 0.93746104967267341 5.0355255239121162 
	3.9335716126390139 0.75045374404684595 4.9892509870225954 
	3.9870265580798243 0.37387922176239352 4.9278423532888151 
	4 0.18429937040799196 4.912763792400769 
	4 -0.18429937040799219 4.912763792400769 
	3.9870265580798243 -0.37387922176239374 4.9278423532888151 
	3.9335716126390139 -0.75045374404684695 4.9892509870225954 
	3.8931153357346622 -0.93746104967267518 5.0355255239121162 
	3.7883078920833597 -1.2976535324342424 5.1532129840088681 
	3.7239056013795957 -1.4711611524721979 5.2246334472379088 
	3.5782498239852605 -1.7966402710868596 5.3824905711425002 
	3.4970066468199219 -1.9486438805824213 5.4688705294053017 
	3.3006730579509012 -2.2696818079342602 5.672582373925958 
	3.1724072912098764 -2.4460845804081353 5.8021278989813849 
	2.8878669818316962 -2.7762784609276956 6.0780361393119779 
	2.7315866137369165 -2.9301036375642671 6.2243520721368331 
	2.5651090357888893 -3.0692369792041467 6.3734169187769556 
	0.00017117090975346245 
	cone 0 0 3.6500000000000004 0 0 -1 -4 0 0 1 I I 0 1 4 forward I I I I 
	cone -8.1088393599999655 7.5 -5.5473886499999896 0 -1 0 15.008839359886071 -0 5.5473886499578864 1 I I 0 1 16.001211821751092 forward I I I I 
	nullbs 
	nullbs 
	I I 
	0 
	0 
	0 
	} I I #
coedge $-1 $60 $98 $42 $67 forward $53 $-1 #
edge $99 $72 $63 $66 $100 forward #
coedge $-1 $101 $43 $98 $102 reversed $34 $-1 #
coedge $-1 $43 $103 $54 $82 reversed $34 $-1 #
ptlist-eye-attrib $-1 $-1 $-1 $44 #
vertex $-1 $82 $104 #
vertex $-1 $44 $105 #
intcurve-curve $-1 forward { surfintcur nubs 3 open 13 
	1.4616902526868611 3 2.1925353790302919 2 2.9233805053737223 2 3.47627861640458 2 4.0291767274354378 2 
	4.5820748384662959 2 5.1349729494971541 2 5.6878710605280114 2 6.2407691715588687 2 6.7936672825897269 2 
	7.3465653936205841 2 8.0774105199640154 2 8.8082556463074475 3 
	-2.5651090366001275 -3.0692369785261562 6.3734169182135636 
	-2.7315866144618939 -2.930103636883632 6.2243520716323104 
	-2.8878669824745953 -2.7762784602541042 6.0780361388693231 
	-3.172407291700408 -2.4460845797664423 5.8021278986633016 
	-3.3006730583711201 -2.2696818073174168 5.6725823736705747 
	-3.497006647128357 -1.9486438800249037 5.468870529255998 
	-3.5782498242461047 -1.7966402705620845 5.3824905710407469 
	-3.7239056015537324 -1.4711611520249763 5.224633447226382 
	-3.7883078922183637 -1.2976535320318461 5.1532129840399952 
	-3.89311533580466 -0.93746104937053698 5.0355255240159744 
	-3.9335716126830711 -0.75045374380037844 4.9892509871565469 
	-3.9870265580888651 -0.37387922163479592 4.9278423534637614 
	-4 -0.18429937034361937 4.9127637925865262 
	-4 0.1842993703436191 4.9127637925865262 
	-3.987026558088866 0.37387922163479503 4.9278423534637605 
	-3.933571612683072 0.75045374380037677 4.989250987156546 
	-3.8931153358046613 0.93746104937053487 5.0355255240159753 
	-3.7883078922183646 1.2976535320318439 5.1532129840399943 
	-3.723905601553732 1.4711611520249752 5.2246334472263785 
	-3.5782498242461043 1.7966402705620839 5.3824905710407434 
	-3.4970066471283587 1.9486438800249037 5.4688705292559945 
	-3.300673058371121 2.2696818073174168 5.6725823736705721 
	-3.1724072917004094 2.4460845797664401 5.8021278986632998 
	-2.8878669824745962 2.7762784602541029 6.0780361388693214 
	-2.7315866144618939 2.9301036368836315 6.2243520716323104 
	-2.5651090366001275 3.0692369785261557 6.3734169182135636 
	0.00017117090969687548 
	cone 0 0 3.6500000000000004 0 0 -1 -4 0 0 1 I I 0 1 4 forward I I I I 
	cone 8.1088393599998803 7.5 -5.5473886499999026 0 -1 0 -10.800763320081842 0 11.806027760089496 1 I I 0 1 16.001211821872403 forward I I I I 
	nullbs 
	nullbs 
	I I 
	0 
	0 
	0 
	} I I #
loop $-1 $-1 $106 $52 #
point $-1 4 4.8985871965894118e-016 0 #
render-rbase-attrib $-1 $-1 $50 $23 $7 $-1 0 2 -1 0 0 0 0 -1 -0 -1 -0 0 7.5 0 1 rotate no_reflect no_shear #
rgb_color-st-attrib $-1 $107 $51 $33 0.792156862745098 0.88235294117647056 1 #
fmesh-eye-attrib $-1 $108 $-1 $52 #
face $109 $110 $111 $4 $-1 $112 forward single #
plane-surface $-1 0 7.5 0 0 0 -1 1 0 0 forward_v I I I I #
coedge $-1 $55 $54 $113 $114 forward $24 $-1 #
edge $115 $71 $116 $54 $117 forward #
ptlist-eye-attrib $-1 $-1 $-1 $56 #
ellipse-curve $-1 0 0 3.2999999999999989 0 -0.70710678118654768 -0.70710678118654746 0 4 -4.0000000000000009 0.70710678118654746 I I #
coedge $-1 $59 $57 $118 $119 reversed $15 $-1 #
coedge $-1 $113 $120 $57 $87 reversed $111 $-1 #
edge $121 $89 $122 $57 $123 forward #
ptlist-eye-attrib $-1 $-1 $-1 $58 #
vertex $-1 $58 $124 #
straight-curve $-1 2.6919239608712018 7.5 6.2586391109575192 0 -1 0 I I #
coedge $-1 $125 $126 $59 $92 reversed $127 $-1 #
edge $128 $129 $95 $91 $130 forward #
coedge $-1 $98 $60 $126 $131 forward $53 $-1 #
ptlist-eye-attrib $-1 $-1 $-1 $61 #
vertex $-1 $131 $132 #
point $-1 2.6919239608712018 2.9586391109575194 6.2586391109575192 #
point $-1 2.6919239608712018 -2.9586391109575194 6.2586391109575192 #
coedge $-1 $66 $93 $68 $102 forward $53 $-1 #
ptlist-eye-attrib $-1 $-1 $-1 $67 #
ellipse-curve $-1 0 0 3.2999999999999989 0 0.70710678118654768 -0.70710678118654746 0 4 4.0000000000000009 0.70710678118654746 I I #
coedge $-1 $133 $68 $134 $135 forward $34 $-1 #
edge $136 $137 $72 $98 $117 forward #
coedge $-1 $69 $133 $138 $139 forward $34 $-1 #
point $-1 -2.6919239600819616 -2.9586391116756112 6.2586391100895931 #
point $-1 -2.6919239600819616 2.9586391116756112 6.2586391100895931 #
coedge $-1 $140 $118 $120 $141 forward $74 $-1 #
render-rbase-attrib $-1 $-1 $77 $33 $7 $-1 0 2 -1 0 0 0 0 -1 -0 -1 -0 0 7.5 0 1 rotate no_reflect no_shear #
rgb_color-st-attrib $-1 $142 $78 $52 0.792156862745098 0.88235294117647056 1 #
fmesh-eye-attrib $-1 $143 $-1 $79 #
face $144 $-1 $127 $4 $-1 $145 reversed single #
loop $-1 $-1 $138 $79 #
plane-surface $-1 4.7051029739009209e-011 -15.5 2.6013168801696493 0 -1 0 -1 0 0 forward_v I I I I #
coedge $-1 $138 $86 $81 $114 reversed $111 $-1 #
edge $146 $116 $89 $81 $147 forward #
ptlist-eye-attrib $-1 $-1 $-1 $82 #
vertex $-1 $82 $148 #
straight-curve $-1 -2.6919239600819616 7.5 6.2586391100895931 0 -1 0 I I #
coedge $-1 $106 $149 $85 $119 forward $74 $-1 #
edge $150 $129 $122 $118 $151 forward #
coedge $-1 $86 $138 $106 $141 reversed $111 $-1 #
ptlist-eye-attrib $-1 $-1 $-1 $87 #
vertex $-1 $119 $152 #
ellipse-curve $-1 -8.1088393599999655 -15.5 -5.5473886499999896 0 1 0 15.008839359886071 -0 5.5473886499578864 1 I I #
point $-1 2.6919239608712018 -15.5 6.2586391109575192 #
coedge $-1 $134 $91 $149 $153 forward $127 $-1 #
coedge $-1 $91 $134 $93 $131 reversed $127 $-1 #
loop $-1 $-1 $125 $110 #
ptlist-eye-attrib $-1 $-1 $-1 $92 #
vertex $-1 $153 $154 #
ellipse-curve $-1 -8.1088393599999655 7.5 -5.5473886499999896 0 -1 0 15.008839359886071 -0 5.5473886499578864 1 I I #
edge $155 $95 $137 $126 $156 forward #
point $-1 2.6919239608712018 7.5 6.2586391109575192 #
coedge $-1 $103 $101 $140 $157 forward $34 $-1 #
coedge $-1 $126 $125 $101 $135 reversed $127 $-1 #
edge $158 $137 $159 $134 $160 forward #
ptlist-eye-attrib $-1 $-1 $-1 $102 #
vertex $-1 $135 $161 #
coedge $-1 $120 $113 $103 $139 reversed $111 $-1 #
edge $162 $163 $116 $103 $164 forward #
coedge $-1 $149 $106 $133 $157 reversed $74 $-1 #
edge $165 $122 $163 $106 $166 forward #
render-rbase-attrib $-1 $-1 $108 $52 $7 $-1 0 2 -1 0 0 0 0 -1 -0 -1 -0 0 7.5 0 1 rotate no_reflect no_shear #
rgb_color-st-attrib $-1 $167 $109 $79 0.792156862745098 0.88235294117647056 1 #
fmesh-eye-attrib $-1 $168 $-1 $110 #
plane-surface $-1 4.7051251783614134e-011 7.5 2.6013168801696489 0 -1 0 -1 0 0 forward_v I I I I #
ptlist-eye-attrib $-1 $-1 $-1 $114 #
ellipse-curve $-1 1.0417954124915861e-014 -15.5 3.2999999999999625 0 1 0 -1.0083166045665253e-014 0 3.9999999987054968 1 I I #
point $-1 -2.6919239600819616 -15.5 6.2586391100895931 #
coedge $-1 $118 $140 $125 $153 reversed $74 $-1 #
ptlist-eye-attrib $-1 $-1 $-1 $119 #
straight-curve $-1 6.9000000000000004 7.5 0 0 -1 0 I I #
point $-1 6.9000000000000004 -15.5 0 #
edge $169 $129 $159 $125 $170 forward #
point $-1 6.9000000000000004 7.5 0 #
ptlist-eye-attrib $-1 $-1 $-1 $131 #
ellipse-curve $-1 1.0417954124915861e-014 7.5 3.2999999999999625 0 -1 0 -1.0083166045665253e-014 0 3.9999999987054968 1 I I #
edge $171 $159 $163 $133 $172 forward #
ptlist-eye-attrib $-1 $-1 $-1 $135 #
vertex $-1 $153 $173 #
ellipse-curve $-1 8.1088393599998803 7.5 -5.5473886499999026 0 -1 0 -10.800763320081842 0 11.806027760089496 1 I I #
point $-1 -2.6919239600819616 7.5 6.2586391100895931 #
ptlist-eye-attrib $-1 $-1 $-1 $139 #
vertex $-1 $157 $174 #
ellipse-curve $-1 8.1088393599998803 -15.5 -5.5473886499999026 0 1 0 -10.800763320081842 0 11.806027760089496 1 I I #
ptlist-eye-attrib $-1 $-1 $-1 $141 #
straight-curve $-1 6.9000000000000004 -15.5 0 -1 0 0 I I #
render-rbase-attrib $-1 $-1 $143 $79 $7 $-1 0 2 -1 0 0 0 0 -1 -0 -1 -0 0 7.5 0 1 rotate no_reflect no_shear #
rgb_color-st-attrib $-1 $175 $144 $110 0.792156862745098 0.88235294117647056 1 #
ptlist-eye-attrib $-1 $-1 $-1 $153 #
straight-curve $-1 6.9000000000000004 7.5 0 -1 0 0 I I #
ptlist-eye-attrib $-1 $-1 $-1 $157 #
straight-curve $-1 -6.9000000000000004 7.5 0 0 -1 0 I I #
point $-1 -6.9000000000000004 7.5 0 #
point $-1 -6.9000000000000004 -15.5 0 #
render-rbase-attrib $-1 $-1 $168 $110 $7 $-1 0 2 -1 0 0 0 0 -1 -0 -1 -0 0 7.5 0 1 rotate no_reflect no_shear #
End-of-ACIS-data 