400 0 1 0           
8 KiM GmbH 12 ACIS 30.0 NT 24 Wed Jan 15 16:06:12 2025 
1 9.9999999999999995e-007 1e-010 
body $1 $2 $-1 $-1 #
string_attrib-name_attrib-gen-attrib $-1 $3 $-1 $0 keep keep_kept ignore 17 ATTRIB_XACIS_NAME 31 item_0002623_Nutenstein 8 St M6 #
lump $-1 $-1 $4 $0 #
rgb_color-st-attrib $-1 $5 $1 $0 0.792156862745098 0.88235294117647056 1 #
shell $-1 $-1 $-1 $6 $-1 $2 #
render-rbase-attrib $-1 $-1 $3 $0 $7 $-1 0 1 1 0 0 0 1 0 0 0 1 0 0 0 1 no_rotate no_reflect no_shear #
face $8 $9 $10 $4 $-1 $11 reversed single #
rh_material-rh_entity $-1 4 5 plain 5 color -4 0.792156862745098 0.88235294117647056 1 5 phong 14 ambient factor -2 1 14 diffuse factor -2 0.75 15 specular factor -2 0.5 8 exponent -2 10 14 specular color -4 1 1 1 4 none 4 none #
fmesh-eye-attrib $-1 $12 $-1 $6 #
face $13 $14 $15 $4 $-1 $16 forward single #
loop $-1 $17 $18 $6 #
cone-surface $-1 0 0 3.6500000000000004 0 0 -1 -3 0 0 1 I I 0 1 3 forward I I I I #
render-rbase-attrib $-1 $19 $8 $6 $20 $-1 0 2 -1 0 0 0 1 0 0 0 -1 0 0 8.3000000000000007 1 rotate no_reflect no_shear #
fmesh-eye-attrib $-1 $21 $-1 $9 #
face $22 $23 $24 $4 $-1 $25 forward single #
loop $-1 $-1 $26 $9 #
cone-surface $-1 -8.1088393599999655 6.5 -5.5473886499999896 0 -1 0 15.008839359886071 -0 5.5473886499578864 1 I I 0 1 16.001211821751092 forward I I I I #
loop $-1 $-1 $27 $6 #
coedge $-1 $18 $18 $28 $29 reversed $10 $-1 #
rgb_color-st-attrib $-1 $-1 $12 $6 0.792156862745098 0.88235294117647056 1 #
rh_material-rh_entity $-1 4 5 plain 5 color -4 0.792156862745098 0.88235294117647056 1 5 phong 14 ambient factor -2 1 14 diffuse factor -2 0.75 15 specular factor -2 0.5 8 exponent -2 10 14 specular color -4 1 1 1 4 none 4 none #
render-rbase-attrib $-1 $30 $13 $9 $7 $-1 0 2 -1 0 0 0 0 -1 -0 -1 -0 0 6.5 0 1 rotate no_reflect no_shear #
fmesh-eye-attrib $-1 $31 $-1 $14 #
face $32 $33 $34 $4 $-1 $35 forward single #
loop $-1 $-1 $36 $14 #
cone-surface $-1 0 6.5 3.2999999999999989 0 -1 0 2.6919239608712018 -0 2.9586391109575203 1 I I 0 1 4.0000000000000009 forward I I I I #
coedge $-1 $37 $38 $39 $40 forward $15 $-1 #
coedge $-1 $41 $42 $43 $44 reversed $17 $-1 #
coedge $-1 $28 $28 $18 $29 forward $45 $-1 #
edge $46 $47 $47 $28 $48 forward #
rgb_color-st-attrib $-1 $-1 $21 $9 0.792156862745098 0.88235294117647056 1 #
rgb_color-st-attrib $-1 $49 $22 $14 0.792156862745098 0.88235294117647056 1 #
fmesh-eye-attrib $-1 $50 $-1 $23 #
face $51 $52 $53 $4 $-1 $25 forward single #
loop $-1 $-1 $43 $23 #
cone-surface $-1 8.1088393599998803 6.5 -5.5473886499999026 0 -1 0 -10.800763320081842 0 11.806027760089496 1 I I 0 1 16.001211821872403 forward I I I I #
coedge $-1 $54 $55 $41 $56 forward $24 $-1 #
coedge $-1 $57 $26 $55 $58 forward $15 $-1 #
coedge $-1 $26 $59 $60 $61 forward $15 $-1 #
coedge $-1 $42 $41 $26 $40 reversed $17 $-1 #
edge $62 $63 $64 $26 $65 forward #
coedge $-1 $39 $27 $36 $56 reversed $17 $-1 #
coedge $-1 $27 $39 $66 $67 reversed $17 $-1 #
coedge $-1 $68 $69 $27 $44 forward $34 $-1 #
edge $70 $71 $72 $43 $73 forward #
loop $-1 $74 $28 $52 #
ptlist-eye-attrib $-1 $-1 $-1 $29 #
vertex $-1 $29 $75 #
ellipse-curve $-1 0 0 0 -0 -0 1 -3 0 0 1 I I #
render-rbase-attrib $-1 $-1 $31 $14 $7 $-1 0 2 -1 0 0 0 0 -1 -0 -1 -0 0 6.5 0 1 rotate no_reflect no_shear #
rgb_color-st-attrib $-1 $76 $32 $23 0.792156862745098 0.88235294117647056 1 #
fmesh-eye-attrib $-1 $77 $-1 $33 #
face $78 $79 $45 $4 $-1 $80 forward single #
loop $-1 $-1 $66 $33 #
coedge $-1 $81 $36 $69 $82 forward $24 $-1 #
coedge $-1 $36 $81 $37 $58 reversed $24 $-1 #
edge $83 $64 $71 $36 $84 forward #
coedge $-1 $85 $37 $86 $87 forward $15 $-1 #
edge $88 $64 $89 $37 $90 forward #
coedge $-1 $38 $85 $91 $92 forward $15 $-1 #
coedge $-1 $93 $66 $38 $61 reversed $53 $-1 #
edge $94 $95 $63 $38 $90 forward #
ptlist-eye-attrib $-1 $-1 $-1 $40 #
vertex $-1 $67 $96 #
vertex $-1 $58 $97 #
intcurve-curve $-1 forward { surfintcur nubs 3 open 7 
	1.8299699996710634 3 2.5576824983506343 2 2.9215387476904198 2 3.2853949970302052 2 3.6492512463699902 2 
	4.0131074957097752 2 4.7408199943893452 3 
	2.6414850635888181 1.4221661853796044 6.30458606108244 
	2.7471250047828302 1.2259540059233027 6.208765434764147 
	2.8418299948035557 0.99419109583557153 6.1200548827597689 
	2.9368033959584583 0.62553101696047053 6.0299366261341678 
	2.9609072246466654 0.49916872317385097 6.006830077661018 
	2.9925087788433933 0.24704698919654172 5.976470484678881 
	3 0.12128541644659514 5.9692283809801783 
	3 -0.121285416446595 5.9692283809801783 
	2.9925087788433933 -0.24704698919654169 5.9764704846788801 
	2.9609072246466654 -0.49916872317385108 6.0068300776610171 
	2.9368033959584579 -0.62553101696047053 6.0299366261341678 
	2.8418299948035561 -0.99419109583557097 6.1200548827597672 
	2.7471250047828315 -1.2259540059233021 6.2087654347641452 
	2.641485063588819 -1.422166185379603 6.3045860610824374 
	0.00049971263421656265 
	cone 0 0 3.6500000000000004 0 0 -1 -3 0 0 1 I I 0 1 3 forward I I I I 
	cone -8.1088393599999655 6.5 -5.5473886499999896 0 -1 0 15.008839359886071 -0 5.5473886499578864 1 I I 0 1 16.001211821751092 forward I I I I 
	nullbs 
	nullbs 
	I I 
	0 
	0 
	0 
	} I I #
coedge $-1 $60 $98 $42 $67 forward $53 $-1 #
edge $99 $72 $63 $66 $100 forward #
coedge $-1 $101 $43 $98 $102 reversed $34 $-1 #
coedge $-1 $43 $103 $54 $82 reversed $34 $-1 #
ptlist-eye-attrib $-1 $-1 $-1 $44 #
vertex $-1 $82 $104 #
vertex $-1 $44 $105 #
intcurve-curve $-1 forward { surfintcur nubs 3 open 7 
	1.8299699986181961 3 2.5576824969179848 2 2.921538746067879 2 3.2853949952177732 2 3.6492512443676688 2 
	4.0131074935175644 2 4.7408199918173555 3 
	-2.6414850639275116 -1.4221661847505276 6.3045860609391706 
	-2.7471250050262368 -1.2259540053592599 6.2087654347031318 
	-2.841829994958323 -0.99419109536229933 6.1200548827804191 
	-2.936803396021757 -0.62553101665101862 6.0299366262414518 
	-2.9609072246861476 -0.49916872292361369 6.0068300777913244 
	-2.9925087788512155 -0.247046989069378 5.9764704848399219 
	-3 -0.12128541638329804 5.9692283811488966 
	-3 0.1212854163832985 5.9692283811488966 
	-2.9925087788512155 0.24704698906937866 5.9764704848399228 
	-2.9609072246861476 0.49916872292361536 6.0068300777913253 
	-2.9368033960217561 0.62553101665102162 6.0299366262414473 
	-2.8418299949583212 0.9941910953623031 6.1200548827804147 
	-2.7471250050262341 1.2259540053592619 6.2087654347031345 
	-2.6414850639275089 1.4221661847505314 6.3045860609391733 
	0.00049971263391794302 
	cone 0 0 3.6500000000000004 0 0 -1 -3 0 0 1 I I 0 1 3 forward I I I I 
	cone 8.1088393599998803 6.5 -5.5473886499999026 0 -1 0 -10.800763320081842 0 11.806027760089496 1 I I 0 1 16.001211821872403 forward I I I I 
	nullbs 
	nullbs 
	I I 
	0 
	0 
	0 
	} I I #
loop $-1 $-1 $106 $52 #
point $-1 3 3.6739403974420589e-016 0 #
render-rbase-attrib $-1 $-1 $50 $23 $7 $-1 0 2 -1 0 0 0 0 -1 -0 -1 -0 0 6.5 0 1 rotate no_reflect no_shear #
rgb_color-st-attrib $-1 $107 $51 $33 0.792156862745098 0.88235294117647056 1 #
fmesh-eye-attrib $-1 $108 $-1 $52 #
face $109 $110 $111 $4 $-1 $112 forward single #
plane-surface $-1 0 6.5 0 0 0 -1 1 0 0 forward_v I I I I #
coedge $-1 $55 $54 $113 $114 forward $24 $-1 #
edge $115 $71 $116 $54 $117 forward #
ptlist-eye-attrib $-1 $-1 $-1 $56 #
intcurve-curve $-1 forward { surfintcur nubs 3 open 13 
	1.2086806329041688 3 1.8130209493562532 2 2.4173612658083377 2 3.0089904681943667 2 3.6006196705803961 2 
	4.1922488729664256 2 4.7838780753524546 2 5.3755072777384836 2 5.9671364801245126 2 6.5587656825105416 2 
	7.1503948848965706 2 7.7547352013486552 2 8.3590755178007399 3 
	2.7619817040803301 -1.1710922535502988 6.1933470352388635 
	2.6848345756265992 -1.353041527628025 6.2669913666326957 
	2.5903181203925452 -1.5255889303515402 6.3511180751603256 
	2.3737338462662207 -1.8446021728815163 6.5224923743584551 
	2.2515898855400711 -1.9910508015792137 6.6096757599160361 
	1.9937907660700285 -2.2488499210492563 6.7709402569382133 
	1.8489102270356301 -2.3703936190902528 6.8514050590539748 
	1.5299978827071357 -2.5877290080655717 7.0000072162145175 
	1.3559407992955035 -2.6835290073571381 7.0680781625106022 
	0.98817528683066347 -2.8396150044141901 7.1807857907026458 
	0.79405241471510823 -2.9000326970242574 7.2254897745667872 
	0.39857563136057794 -2.9802426658914709 7.2851131318944962 
	0.19720973412867693 -3 7.2999999999999998 
	-0.19720973412867579 -3 7.2999999999999998 
	-0.39857563136057728 -2.9802426658914709 7.2851131318944962 
	-0.79405241471510779 -2.9000326970242578 7.2254897745667872 
	-0.98817528683066291 -2.8396150044141901 7.1807857907026476 
	-1.3559407992955026 -2.6835290073571381 7.0680781625106031 
	-1.5299978827071343 -2.5877290080655717 7.0000072162145184 
	-1.8489102270356286 -2.3703936190902533 6.8514050590539757 
	-1.9937907660700276 -2.2488499210492563 6.7709402569382151 
	-2.2515898855400702 -1.9910508015792137 6.6096757599160378 
	-2.3737338462662194 -1.8446021728815172 6.5224923743584569 
	-2.5903181203925447 -1.5255889303515406 6.3511180751603273 
	-2.6848345756265992 -1.3530415276280254 6.2669913666326957 
	-2.7619817040803296 -1.171092253550299 6.1933470352388635 
	0.00017587377267061781 
	cone 0 0 3.6500000000000004 0 0 -1 -3 0 0 1 I I 0 1 3 forward I I I I 
	cone 0 6.5 3.2999999999999989 0 -1 0 2.6919239608712018 -0 2.9586391109575203 1 I I 0 1 4.0000000000000009 forward I I I I 
	nullbs 
	nullbs 
	I I 
	0 
	0 
	0 
	} I I #
coedge $-1 $59 $57 $118 $119 reversed $15 $-1 #
coedge $-1 $113 $120 $57 $87 reversed $111 $-1 #
edge $121 $89 $122 $57 $123 forward #
ptlist-eye-attrib $-1 $-1 $-1 $58 #
vertex $-1 $58 $124 #
straight-curve $-1 2.6919239608712018 6.5 6.2586391109575192 0 -1 0 I I #
coedge $-1 $125 $126 $59 $92 reversed $127 $-1 #
edge $128 $129 $95 $91 $130 forward #
coedge $-1 $98 $60 $126 $131 forward $53 $-1 #
ptlist-eye-attrib $-1 $-1 $-1 $61 #
vertex $-1 $131 $132 #
point $-1 2.6919239608712018 1.3242150085569566 6.2586391109575192 #
point $-1 2.6919239608712018 -1.3242150085569566 6.2586391109575192 #
coedge $-1 $66 $93 $68 $102 forward $53 $-1 #
ptlist-eye-attrib $-1 $-1 $-1 $67 #
intcurve-curve $-1 forward { surfintcur nubs 3 open 13 
	10.776436783609078 3 11.380777100061163 2 11.985117416513248 2 12.576746618899277 2 13.168375821285306 2 
	13.760005023671335 2 14.351634226057364 2 14.943263428443391 2 15.53489263082942 2 16.126521833215449 2 
	16.718151035601476 2 17.322491352053561 2 17.926831668505649 3 
	-2.7619817040803301 1.1710922535502988 6.1933470352388635 
	-2.6848345756265992 1.353041527628025 6.2669913666326957 
	-2.5903181203925452 1.5255889303515404 6.3511180751603256 
	-2.3737338462662207 1.8446021728815165 6.5224923743584551 
	-2.2515898855400711 1.9910508015792137 6.6096757599160361 
	-1.9937907660700285 2.2488499210492563 6.7709402569382133 
	-1.8489102270356301 2.3703936190902519 6.8514050590539757 
	-1.5299978827071361 2.5877290080655708 7.0000072162145184 
	-1.3559407992955035 2.6835290073571372 7.0680781625106013 
	-0.98817528683066369 2.8396150044141892 7.1807857907026458 
	-0.7940524147151089 2.9000326970242569 7.2254897745667872 
	-0.39857563136057861 2.9802426658914709 7.2851131318944962 
	-0.19720973412867732 3 7.2999999999999998 
	0.19720973412867493 3 7.2999999999999998 
	0.39857563136057605 2.9802426658914709 7.2851131318944962 
	0.79405241471510613 2.9000326970242578 7.2254897745667872 
	0.98817528683066103 2.8396150044141906 7.1807857907026476 
	1.3559407992955013 2.6835290073571381 7.0680781625106039 
	1.5299978827071337 2.5877290080655726 7.0000072162145184 
	1.8489102270356275 2.3703936190902546 6.8514050590539766 
	1.9937907660700254 2.248849921049259 6.7709402569382142 
	2.2515898855400684 1.9910508015792174 6.6096757599160378 
	2.3737338462662176 1.844602172881519 6.5224923743584569 
	2.5903181203925438 1.5255889303515415 6.3511180751603264 
	2.6848345756265988 1.353041527628027 6.2669913666326957 
	2.7619817040803296 1.1710922535502997 6.1933470352388635 
	0.00017587377267061781 
	cone 0 0 3.6500000000000004 0 0 -1 -3 0 0 1 I I 0 1 3 forward I I I I 
	cone 0 6.5 3.2999999999999989 0 -1 0 2.6919239608712018 -0 2.9586391109575203 1 I I 0 1 4.0000000000000009 forward I I I I 
	nullbs 
	nullbs 
	I I 
	0 
	0 
	0 
	} I I #
coedge $-1 $133 $68 $134 $135 forward $34 $-1 #
edge $136 $137 $72 $98 $117 forward #
coedge $-1 $69 $133 $138 $139 forward $34 $-1 #
point $-1 -2.6919239600819616 -1.3242150101613599 6.2586391100895931 #
point $-1 -2.6919239600819616 1.3242150101613599 6.2586391100895931 #
coedge $-1 $140 $118 $120 $141 forward $74 $-1 #
render-rbase-attrib $-1 $-1 $77 $33 $7 $-1 0 2 -1 0 0 0 0 -1 -0 -1 -0 0 6.5 0 1 rotate no_reflect no_shear #
rgb_color-st-attrib $-1 $142 $78 $52 0.792156862745098 0.88235294117647056 1 #
fmesh-eye-attrib $-1 $143 $-1 $79 #
face $144 $-1 $127 $4 $-1 $145 reversed single #
loop $-1 $-1 $138 $79 #
plane-surface $-1 4.7051029739009209e-011 -16.5 2.6013168801696493 0 -1 0 -1 0 0 forward_v I I I I #
coedge $-1 $138 $86 $81 $114 reversed $111 $-1 #
edge $146 $116 $89 $81 $147 forward #
ptlist-eye-attrib $-1 $-1 $-1 $82 #
vertex $-1 $82 $148 #
straight-curve $-1 -2.6919239600819616 6.5 6.2586391100895931 0 -1 0 I I #
coedge $-1 $106 $149 $85 $119 forward $74 $-1 #
edge $150 $129 $122 $118 $151 forward #
coedge $-1 $86 $138 $106 $141 reversed $111 $-1 #
ptlist-eye-attrib $-1 $-1 $-1 $87 #
vertex $-1 $119 $152 #
ellipse-curve $-1 -8.1088393599999655 -16.5 -5.5473886499999896 0 1 0 15.008839359886071 -0 5.5473886499578864 1 I I #
point $-1 2.6919239608712018 -16.5 6.2586391109575192 #
coedge $-1 $134 $91 $149 $153 forward $127 $-1 #
coedge $-1 $91 $134 $93 $131 reversed $127 $-1 #
loop $-1 $-1 $125 $110 #
ptlist-eye-attrib $-1 $-1 $-1 $92 #
vertex $-1 $153 $154 #
ellipse-curve $-1 -8.1088393599999655 6.5 -5.5473886499999896 0 -1 0 15.008839359886071 -0 5.5473886499578864 1 I I #
edge $155 $95 $137 $126 $156 forward #
point $-1 2.6919239608712018 6.5 6.2586391109575192 #
coedge $-1 $103 $101 $140 $157 forward $34 $-1 #
coedge $-1 $126 $125 $101 $135 reversed $127 $-1 #
edge $158 $137 $159 $134 $160 forward #
ptlist-eye-attrib $-1 $-1 $-1 $102 #
vertex $-1 $135 $161 #
coedge $-1 $120 $113 $103 $139 reversed $111 $-1 #
edge $162 $163 $116 $103 $164 forward #
coedge $-1 $149 $106 $133 $157 reversed $74 $-1 #
edge $165 $122 $163 $106 $166 forward #
render-rbase-attrib $-1 $-1 $108 $52 $7 $-1 0 2 -1 0 0 0 0 -1 -0 -1 -0 0 6.5 0 1 rotate no_reflect no_shear #
rgb_color-st-attrib $-1 $167 $109 $79 0.792156862745098 0.88235294117647056 1 #
fmesh-eye-attrib $-1 $168 $-1 $110 #
plane-surface $-1 4.7051251783614134e-011 6.5 2.6013168801696489 0 -1 0 -1 0 0 forward_v I I I I #
ptlist-eye-attrib $-1 $-1 $-1 $114 #
ellipse-curve $-1 1.0417954124915861e-014 -16.5 3.2999999999999625 0 1 0 -1.0083166045665253e-014 0 3.9999999987054968 1 I I #
point $-1 -2.6919239600819616 -16.5 6.2586391100895931 #
coedge $-1 $118 $140 $125 $153 reversed $74 $-1 #
ptlist-eye-attrib $-1 $-1 $-1 $119 #
straight-curve $-1 6.9000000000000004 6.5 0 0 -1 0 I I #
point $-1 6.9000000000000004 -16.5 0 #
edge $169 $129 $159 $125 $170 forward #
point $-1 6.9000000000000004 6.5 0 #
ptlist-eye-attrib $-1 $-1 $-1 $131 #
ellipse-curve $-1 1.0417954124915861e-014 6.5 3.2999999999999625 0 -1 0 -1.0083166045665253e-014 0 3.9999999987054968 1 I I #
edge $171 $159 $163 $133 $172 forward #
ptlist-eye-attrib $-1 $-1 $-1 $135 #
vertex $-1 $153 $173 #
ellipse-curve $-1 8.1088393599998803 6.5 -5.5473886499999026 0 -1 0 -10.800763320081842 0 11.806027760089496 1 I I #
point $-1 -2.6919239600819616 6.5 6.2586391100895931 #
ptlist-eye-attrib $-1 $-1 $-1 $139 #
vertex $-1 $157 $174 #
ellipse-curve $-1 8.1088393599998803 -16.5 -5.5473886499999026 0 1 0 -10.800763320081842 0 11.806027760089496 1 I I #
ptlist-eye-attrib $-1 $-1 $-1 $141 #
straight-curve $-1 6.9000000000000004 -16.5 0 -1 0 0 I I #
render-rbase-attrib $-1 $-1 $143 $79 $7 $-1 0 2 -1 0 0 0 0 -1 -0 -1 -0 0 6.5 0 1 rotate no_reflect no_shear #
rgb_color-st-attrib $-1 $175 $144 $110 0.792156862745098 0.88235294117647056 1 #
ptlist-eye-attrib $-1 $-1 $-1 $153 #
straight-curve $-1 6.9000000000000004 6.5 0 -1 0 0 I I #
ptlist-eye-attrib $-1 $-1 $-1 $157 #
straight-curve $-1 -6.9000000000000004 6.5 0 0 -1 0 I I #
point $-1 -6.9000000000000004 6.5 0 #
point $-1 -6.9000000000000004 -16.5 0 #
render-rbase-attrib $-1 $-1 $168 $110 $7 $-1 0 2 -1 0 0 0 0 -1 -0 -1 -0 0 6.5 0 1 rotate no_reflect no_shear #
End-of-ACIS-data 