400 0 1 0           
8 KiM GmbH 12 ACIS 30.0 NT 24 Wed Jan 22 12:12:18 2025 
1 9.9999999999999995e-007 1e-010 
body $1 $2 $-1 $-1 #
string_attrib-name_attrib-gen-attrib $-1 $3 $-1 $0 keep keep_kept ignore 17 ATTRIB_XACIS_NAME 31 item_0037006_Nutenstein 5 St M4 #
lump $-1 $-1 $4 $0 #
rgb_color-st-attrib $-1 $5 $1 $0 0.792156862745098 0.88235294117647056 1 #
shell $-1 $-1 $-1 $6 $-1 $2 #
render-rbase-attrib $-1 $-1 $3 $0 $7 $-1 0 1 1 0 0 0 1 0 0 0 1 0 0 0 1 no_rotate no_reflect no_shear #
face $8 $9 $10 $4 $-1 $11 reversed single #
rh_material-rh_entity $-1 4 5 plain 5 color -4 0.792156862745098 0.88235294117647056 1 5 phong 14 ambient factor -2 1 14 diffuse factor -2 0.75 15 specular factor -2 0.5 8 exponent -2 10 14 specular color -4 1 1 1 4 none 4 none #
fmesh-eye-attrib $-1 $12 $-1 $6 #
face $13 $14 $15 $4 $-1 $16 forward single #
loop $-1 $17 $18 $6 #
cone-surface $-1 0 0 1.7999999999999998 0 0 -1 -2 0 0 1 I I 0 1 2 forward I I I I #
render-rbase-attrib $-1 $19 $8 $6 $20 $-1 0 2 -1 0 0 0 1 0 0 0 -1 0 0 5 1 rotate no_reflect no_shear #
fmesh-eye-attrib $-1 $21 $-1 $9 #
face $22 $23 $24 $4 $-1 $25 forward single #
loop $-1 $-1 $26 $9 #
cone-surface $-1 -3.3225905220986673 3 -2.8959195509565197 0 -1 0 7.2783721920986659 -0 3.3204359009565212 1 I I 0 1 7.9999997711922521 forward I I I I #
loop $-1 $-1 $27 $6 #
coedge $-1 $28 $29 $30 $31 reversed $10 $-1 #
rgb_color-st-attrib $-1 $-1 $12 $6 0.792156862745098 0.88235294117647056 1 #
rh_material-rh_entity $-1 4 5 plain 5 color -4 0.792156862745098 0.88235294117647056 1 5 phong 14 ambient factor -2 1 14 diffuse factor -2 0.75 15 specular factor -2 0.5 8 exponent -2 10 14 specular color -4 1 1 1 4 none 4 none #
render-rbase-attrib $-1 $32 $13 $9 $7 $-1 0 2 -1 0 0 0 0 -1 -0 -1 -0 0 3 0 1 rotate no_reflect no_shear #
fmesh-eye-attrib $-1 $33 $-1 $14 #
face $34 $35 $36 $4 $-1 $37 forward single #
loop $-1 $-1 $38 $14 #
cone-surface $-1 -0.01715729499999985 3 1.5000000154766271 0 -1 0 1.5024697350000003 -0 1.9981452945233724 1 I I 0 1 2.4999999845233729 forward I I I I #
coedge $-1 $39 $40 $41 $42 forward $15 $-1 #
coedge $-1 $27 $27 $43 $44 reversed $17 $-1 #
coedge $-1 $41 $18 $38 $45 reversed $10 $-1 #
coedge $-1 $18 $41 $46 $47 reversed $10 $-1 #
coedge $-1 $48 $49 $18 $31 forward $50 $-1 #
edge $51 $52 $53 $30 $54 forward #
rgb_color-st-attrib $-1 $-1 $21 $9 0.792156862745098 0.88235294117647056 1 #
rgb_color-st-attrib $-1 $55 $22 $14 0.792156862745098 0.88235294117647056 1 #
fmesh-eye-attrib $-1 $56 $-1 $23 #
face $57 $58 $59 $4 $-1 $60 forward single #
loop $-1 $-1 $61 $23 #
cone-surface $-1 3.6828427176970582 3 0.29999999187493032 0 -1 0 -7.6970581019963902e-009 0 -0.29999999187493032 1 I I 0 1 0.29999999187493043 forward I I I I #
coedge $-1 $62 $63 $28 $45 forward $24 $-1 #
coedge $-1 $64 $26 $63 $65 forward $15 $-1 #
coedge $-1 $26 $66 $67 $68 forward $15 $-1 #
coedge $-1 $29 $28 $26 $42 reversed $10 $-1 #
edge $69 $70 $71 $26 $72 forward #
coedge $-1 $43 $43 $27 $44 forward $73 $-1 #
edge $74 $75 $75 $43 $76 forward #
edge $77 $71 $52 $38 $78 forward #
coedge $-1 $67 $79 $29 $47 forward $80 $-1 #
edge $81 $53 $70 $46 $82 forward #
coedge $-1 $83 $30 $79 $84 reversed $50 $-1 #
coedge $-1 $30 $85 $62 $86 reversed $50 $-1 #
loop $-1 $-1 $30 $87 #
ptlist-eye-attrib $-1 $-1 $-1 $31 #
vertex $-1 $86 $88 #
vertex $-1 $31 $89 #
intcurve-curve $-1 forward { surfintcur nubs 3 open 9 
	1.8177099811272643 3 2.2518276246949243 2 2.685945268262584 2 3.1200629118302441 2 3.5541805553979038 2 
	3.9882981989655635 2 4.4224158425332227 2 4.856533486100882 2 5.2906511296685412 3 
	-1.328860050437626 -1.4947009621830414 3.6372306603004829 
	-1.4244872158480946 -1.4096838764477337 3.5696486181636633 
	-1.5162370450436407 -1.3114281299578892 3.5015401815614879 
	-1.6810972650717555 -1.0921220170868744 3.3743408890375388 
	-1.7542355051437275 -0.97106859924625288 3.3152913938752731 
	-1.874216906856691 -0.71247917074936562 3.215932148810964 
	-1.9211804271462936 -0.57463153444565629 3.1755953990439241 
	-1.9840858578690104 -0.29075580260219563 3.1210506585188615 
	-2 -0.1447058811892199 3.1069242711441563 
	-2.0000000000000004 0.1447058811892199 3.1069242711441567 
	-1.9840858578690099 0.29075580260219569 3.1210506585188624 
	-1.9211804271462931 0.5746315344456564 3.175595399043925 
	-1.8742169068566912 0.71247917074936606 3.2159321488109631 
	-1.7542355051437277 0.97106859924625288 3.3152913938752713 
	-1.6810972650717557 1.0921220170868742 3.3743408890375384 
	-1.5162370450436411 1.3114281299578887 3.5015401815614875 
	-1.4244872158480955 1.4096838764477329 3.5696486181636633 
	-1.3288600504376269 1.4947009621830409 3.637230660300482 
	0.00016054703618755833 
	cone 0 0 1.7999999999999998 0 0 -1 -2 0 0 1 I I 0 1 2 forward I I I I 
	cone 3.2882760903933295 3 -2.8959196781879126 0 -1 0 -4.807903120393326 0 6.3940649881879148 1 I I 0 1 7.9999999680161498 forward I I I I 
	nullbs 
	nullbs 
	I I 
	0 
	0 
	0 
	} I I #
render-rbase-attrib $-1 $-1 $33 $14 $7 $-1 0 2 -1 0 0 0 0 -1 -0 -1 -0 0 3 0 1 rotate no_reflect no_shear #
rgb_color-st-attrib $-1 $90 $34 $23 0.792156862745098 0.88235294117647056 1 #
fmesh-eye-attrib $-1 $91 $-1 $35 #
face $92 $93 $94 $4 $-1 $95 forward single #
loop $-1 $-1 $96 $35 #
plane-surface $-1 3.2078427100000004 3 0 0 0 -1 1 0 -0 forward_v I I I I #
coedge $-1 $97 $98 $99 $100 forward $36 $-1 #
coedge $-1 $101 $38 $49 $86 forward $24 $-1 #
coedge $-1 $38 $101 $39 $65 reversed $24 $-1 #
coedge $-1 $102 $39 $103 $104 forward $15 $-1 #
edge $105 $71 $106 $39 $107 forward #
coedge $-1 $40 $102 $108 $109 forward $15 $-1 #
coedge $-1 $110 $46 $40 $68 reversed $80 $-1 #
edge $111 $112 $70 $40 $107 forward #
ptlist-eye-attrib $-1 $-1 $-1 $42 #
vertex $-1 $47 $113 #
vertex $-1 $65 $114 #
intcurve-curve $-1 forward { surfintcur nubs 3 open 9 
	1.8400294941797628 3 2.2798209862905523 2 2.7196124784013413 2 3.1594039705121308 2 3.5991954626229203 2 
	4.0389869547337103 2 4.4787784468444993 2 4.9185699389552893 2 5.3583614310660792 3 
	1.3158854032214873 1.5061359850918588 3.6220968213228124 
	1.4131906669284695 1.4211220305512087 3.5528505817718776 
	1.5065867531466701 1.3226380699492892 3.4829799525623191 
	1.6744886534008157 1.1023896119254448 3.352321141170691 
	1.7490245081452245 0.98062348765043716 3.2915743098750103 
	1.8713976122374953 0.7201244861106183 3.189213732539248 
	1.9193592774864867 0.5810772441515929 3.1475717995603398 
	1.9836742444716977 0.29432513559768281 3.0911815537072416 
	2 0.14659716403692982 3.0765193539751596 
	2 -0.14659716403692996 3.0765193539751596 
	1.9836742444716973 -0.29432513559768331 3.0911815537072411 
	1.9193592774864863 -0.58107724415159323 3.1475717995603394 
	1.8713976122374953 -0.72012448611061886 3.1892137325392467 
	1.7490245081452245 -0.98062348765043761 3.291574309875009 
	1.6744886534008161 -1.102389611925445 3.3523211411706901 
	1.5065867531466701 -1.3226380699492897 3.4829799525623182 
	1.4131906669284697 -1.4211220305512093 3.5528505817718776 
	1.3158854032214871 -1.5061359850918592 3.6220968213228124 
	0.00016142760410102711 
	cone 0 0 1.7999999999999998 0 0 -1 -2 0 0 1 I I 0 1 2 forward I I I I 
	cone -3.3225905220986673 3 -2.8959195509565197 0 -1 0 7.2783721920986659 -0 3.3204359009565212 1 I I 0 1 7.9999997711922521 forward I I I I 
	nullbs 
	nullbs 
	I I 
	0 
	0 
	0 
	} I I #
loop $-1 $115 $43 $116 #
ptlist-eye-attrib $-1 $-1 $-1 $44 #
vertex $-1 $44 $117 #
intcurve-curve $-1 forward { surfintcur nubs 3 periodic 33 
	0 3 0.37781844523438812 2 0.75563689046877625 2 1.1334553357031645 2 1.5112737809375525 2 
	1.8890701696014187 2 2.2668665582652849 2 2.6446629469291509 2 3.0224593355930169 2 3.4002557242568834 2 
	3.7780521129207494 2 4.1558485015846154 2 4.5336448902484818 2 4.9114633354828694 2 5.2892817807172579 2 
	5.6671002259516463 2 6.0449186711860339 2 6.4227371164204214 2 6.8005555616548099 2 7.1783740068891984 2 
	7.5561924521235859 2 7.9339888407874524 2 8.3117852294513188 2 8.6895816181151844 2 9.0673780067790517 2 
	9.4451743954429173 2 9.8229707841067828 2 10.20076717277065 2 10.578563561434516 2 10.956382006668903 2 
	11.334200451903293 2 11.71201889713768 2 12.089837342372068 3 
	2 0 -0.37124198913020123 
	2 0.12593948174479605 -0.37124198913020123 
	1.9879126890007868 0.25606588909106287 -0.36872194986149948 
	1.9371265682133407 0.51469141987718048 -0.3584505592017217 
	1.8984398882620293 0.64319323812120688 -0.35070709105986386 
	1.7962804179271492 0.88946519056847695 -0.3313031111857605 
	1.7327263962260468 1.0074380991749567 -0.3196460669422525 
	1.5859942987297648 1.2255180017979252 -0.29469905861244933 
	1.5028060479400573 1.3256210768061323 -0.2814346901744495 
	1.3256262487251593 1.5028008760210305 -0.25586232073198689 
	1.2255255741612672 1.5859885532679443 -0.24265150577843203 
	1.0074441527028779 1.732722973651541 -0.21789919139009251 
	0.88946732785924876 1.7962796446744891 -0.2063819972534785 
	0.6431877417171572 1.8984420549534748 -0.18726090615259178 
	0.51468231930110708 1.9371290110623829 -0.17965820151452525 
	0.25605582200581939 1.9879140100438499 -0.16958322686538443 
	0.12593212955462188 2 -0.1671174000000038 
	-0.12593212955462227 2 -0.16711740000000413 
	-0.25605582200582011 1.9879140100438502 -0.16958322686538416 
	-0.51468231930110786 1.9371290110623831 -0.17965820151452558 
	-0.64318774171715787 1.8984420549534744 -0.18726090615259328 
	-0.88946732785924909 1.7962796446744891 -0.20638199725348055 
	-1.0074441527028779 1.732722973651541 -0.21789919139009578 
	-1.2255255741612672 1.5859885532679443 -0.24265150577843586 
	-1.3256262487251589 1.5028008760210305 -0.25586232073199017 
	-1.5028060479400573 1.3256210768061325 -0.28143469017445327 
	-1.5859942987297644 1.2255180017979255 -0.29469905861245271 
	-1.7327263962260464 1.0074380991749572 -0.31964606694225622 
	-1.7962804179271492 0.88946519056847739 -0.33130311118576572 
	-1.8984398882620295 0.64319323812120688 -0.35070709105986936 
	-1.9371265682133409 0.51469141987718003 -0.35845055920172686 
	-1.987912689000787 0.25606588909106232 -0.36872194986150475 
	-2 0.12593948174479588 -0.37124198913020656 
	-2 -0.12593948174479586 -0.37124198913020656 
	-1.987912689000787 -0.25606588909106232 -0.36872194986150475 
	-1.9371265682133409 -0.51469141987718015 -0.35845055920172686 
	-1.8984398882620295 -0.64319323812120688 -0.35070709105986941 
	-1.7962804179271492 -0.88946519056847728 -0.33130311118576566 
	-1.7327263962260462 -1.0074380991749574 -0.31964606694225628 
	-1.5859942987297644 -1.2255180017979257 -0.29469905861245271 
	-1.5028060479400573 -1.3256210768061325 -0.28143469017445322 
	-1.3256262487251593 -1.5028008760210305 -0.25586232073199017 
	-1.225525574161267 -1.5859885532679443 -0.24265150577843583 
	-1.0074441527028779 -1.732722973651541 -0.21789919139009578 
	-0.88946732785924898 -1.7962796446744886 -0.20638199725348055 
	-0.64318774171715776 -1.898442054953474 -0.18726090615259322 
	-0.5146823193011083 -1.9371290110623829 -0.17965820151452558 
	-0.25605582200582055 -1.9879140100438502 -0.16958322686538413 
	-0.12593212955462246 -2 -0.16711740000000411 
	0.12593212955462174 -2 -0.16711740000000383 
	0.25605582200581928 -1.9879140100438502 -0.16958322686538446 
	0.51468231930110675 -1.9371290110623831 -0.17965820151452522 
	0.64318774171715631 -1.8984420549534748 -0.18726090615259181 
	0.8894673278592482 -1.7962796446744893 -0.20638199725347856 
	1.0074441527028775 -1.7327229736515415 -0.21789919139009245 
	1.225525574161267 -1.5859885532679443 -0.24265150577843203 
	1.3256262487251593 -1.5028008760210305 -0.25586232073198689 
	1.5028060479400573 -1.3256210768061323 -0.2814346901744495 
	1.5859942987297646 -1.2255180017979259 -0.29469905861244938 
	1.7327263962260466 -1.0074380991749574 -0.31964606694225256 
	1.7962804179271488 -0.8894651905684765 -0.33130311118576045 
	1.898439888262029 -0.6431932381212061 -0.35070709105986386 
	1.9371265682133409 -0.51469141987717981 -0.3584505592017217 
	1.9879126890007868 -0.25606588909106243 -0.36872194986149942 
	2 -0.12593948174479591 -0.37124198913020123 
	2 0 -0.37124198913020123 
	0.00013043279382212206 
	cone 0 0 1.7999999999999998 0 0 -1 -2 0 0 1 I I 0 1 2 forward I I I I 
	cone 1.1990408665951691e-014 3 -10.067117358627293 0 -1 0 2.1346758899999791 -0 9.6671173586272925 1 I I 0 -1 9.8999999586272889 forward I I I I 
	nullbs 
	nullbs 
	I I 
	0 
	0 
	0 
	} I I #
ptlist-eye-attrib $-1 $-1 $-1 $45 #
intcurve-curve $-1 forward { surfintcur nubs 3 open 11 
	1.2333475676289543 3 1.6444634235052724 2 2.0429797615690855 2 2.4414960996328987 2 2.8400124376967115 2 
	3.2385287757605248 2 3.6348315425480866 2 4.0311343093356484 2 4.4274370761232102 2 4.823739842910773 2 
	5.2329692535818513 3 
	1.6549073416171245 -1.1230679813180244 3.3585477747745438 
	1.5830714923202505 -1.2289223694648868 3.4231757529935973 
	1.5019464471378954 -1.3263684130082161 3.4883524678569371 
	1.330958913140996 -1.4975758851041148 3.6078726530001597 
	1.2351494728492791 -1.5782344059400633 3.6669999758607497 
	1.0236542977878629 -1.7229480376330613 3.7761529755507106 
	0.90795018168584196 -1.7870056640468781 3.8261396972996917 
	0.66280741490811113 -1.8916789612971967 3.9092318044349557 
	0.53308503441537869 -1.9323839718639617 3.9423946034791988 
	0.2681035654418521 -1.9865568068999651 3.9873046181149863 
	0.13283565098815572 -2 3.9990294630964582 
	-0.13209781127267906 -2 4.0008477225548571 
	-0.26680759861061565 -1.9867026465289699 3.9910925434467561 
	-0.53100989460925951 -1.9329258113114356 3.9502699521757596 
	-0.66051068888745923 -1.8924697999697724 3.9192252529002483 
	-0.90546693542647549 -1.7882521509725402 3.8403974563526191 
	-1.0212093834358824 -1.7243996872867462 3.7925614850707627 
	-1.2329394119576085 -1.5799630664414339 3.6876545887795862 
	-1.3289451433191772 -1.4993758964654793 3.6306244498531148 
	-1.5004641015081566 -1.3280714430975982 3.5151513312573197 
	-1.5819132412983437 -1.2304519931502269 3.4520874029756303 
	-1.6540414188936732 -1.1243429123644639 3.389605870559032 
	0.00014883491001579913 
	cone 0 0 1.7999999999999998 0 0 -1 -2 0 0 1 I I 0 1 2 forward I I I I 
	cone -0.01715729499999985 3 1.5000000154766271 0 -1 0 1.5024697350000003 -0 1.9981452945233724 1 I I 0 1 2.4999999845233729 forward I I I I 
	nullbs 
	nullbs 
	I I 
	0 
	0 
	0 
	} I I #
coedge $-1 $46 $110 $48 $84 forward $80 $-1 #
loop $-1 $-1 $46 $118 #
ptlist-eye-attrib $-1 $-1 $-1 $47 #
intcurve-curve $-1 forward { surfintcur nubs 3 open 11 
	7.6883457176083176 3 8.0975751282793951 2 8.4938778950669587 2 8.8901806618545205 2 9.2864834286420823 2 
	9.6827861954296459 2 10.08130253349346 2 10.479818871557274 2 10.878335209621088 2 11.276851547684901 2 
	11.687967403561219 3 
	-1.6540414188936743 1.1243429123644626 3.3896058705590315 
	-1.5819132412983448 1.2304519931502254 3.452087402975629 
	-1.5004641015081579 1.3280714430975959 3.5151513312573184 
	-1.328945143319179 1.4993758964654775 3.6306244498531131 
	-1.2329394119576107 1.5799630664414321 3.6876545887795853 
	-1.0212093834358851 1.7243996872867444 3.7925614850707619 
	-0.90546693542647749 1.7882521509725386 3.8403974563526182 
	-0.66051068888746156 1.8924697999697713 3.9192252529002474 
	-0.53100989460926207 1.9329258113114347 3.9502699521757592 
	-0.26680759861061754 1.9867026465289694 3.9910925434467561 
	-0.13209781127268055 2 4.0008477225548571 
	0.13283565098815511 2 3.9990294630964591 
	0.2681035654418516 1.9865568068999653 3.9873046181149863 
	0.53308503441537913 1.9323839718639615 3.9423946034791988 
	0.66280741490811201 1.8916789612971967 3.9092318044349552 
	0.90795018168584285 1.7870056640468781 3.8261396972996904 
	1.0236542977878638 1.7229480376330608 3.7761529755507097 
	1.2351494728492798 1.5782344059400628 3.6669999758607488 
	1.3309589131409965 1.4975758851041139 3.6078726530001592 
	1.501946447137896 1.3263684130082156 3.4883524678569371 
	1.5830714923202511 1.2289223694648861 3.4231757529935978 
	1.6549073416171247 1.1230679813180238 3.3585477747745442 
	0.00014883491001579913 
	cone 0 0 1.7999999999999998 0 0 -1 -2 0 0 1 I I 0 1 2 forward I I I I 
	cone -0.01715729499999985 3 1.5000000154766271 0 -1 0 1.5024697350000003 -0 1.9981452945233724 1 I I 0 1 2.4999999845233729 forward I I I I 
	nullbs 
	nullbs 
	I I 
	0 
	0 
	0 
	} I I #
coedge $-1 $119 $48 $120 $121 forward $50 $-1 #
edge $122 $123 $53 $79 $124 forward #
coedge $-1 $49 $119 $125 $126 forward $50 $-1 #
edge $127 $52 $128 $62 $124 forward #
face $129 $118 $50 $4 $-1 $130 forward single #
point $-1 -1.5196270299999992 -1.3002821577232311 3.49814531 #
point $-1 -1.5196270299999992 1.3002821577232311 3.49814531 #
render-rbase-attrib $-1 $-1 $56 $23 $7 $-1 0 2 -1 0 0 0 0 -1 -0 -1 -0 0 3 0 1 rotate no_reflect no_shear #
rgb_color-st-attrib $-1 $131 $57 $35 0.792156862745098 0.88235294117647056 1 #
fmesh-eye-attrib $-1 $132 $-1 $58 #
face $133 $134 $135 $4 $-1 $136 forward single #
loop $-1 $-1 $137 $58 #
cone-surface $-1 2.7328427203449976 3 -0.30000001113039615 0 -1 0 -1.0344997303235459e-008 0 0.30000001113039598 1 I I 0 -1 0.30000001113039615 forward I I I I #
coedge $-1 $138 $139 $140 $141 forward $59 $-1 #
coedge $-1 $142 $61 $139 $143 reversed $36 $-1 #
coedge $-1 $61 $142 $102 $144 forward $36 $-1 #
coedge $-1 $103 $140 $61 $100 reversed $145 $-1 #
edge $146 $147 $148 $61 $149 forward #
coedge $-1 $63 $62 $150 $151 forward $24 $-1 #
coedge $-1 $66 $64 $98 $144 reversed $15 $-1 #
coedge $-1 $150 $99 $64 $104 reversed $145 $-1 #
edge $152 $106 $147 $64 $153 forward #
ptlist-eye-attrib $-1 $-1 $-1 $65 #
vertex $-1 $65 $154 #
straight-curve $-1 1.4853124400000013 3 3.49814531 0 -1 0 I I #
coedge $-1 $155 $156 $66 $109 reversed $157 $-1 #
edge $158 $159 $112 $66 $160 forward #
coedge $-1 $79 $67 $156 $161 forward $80 $-1 #
ptlist-eye-attrib $-1 $-1 $-1 $68 #
vertex $-1 $109 $162 #
point $-1 1.4853124400000013 1.3393457192156335 3.49814531 #
point $-1 1.4853124400000013 -1.3393457192156335 3.49814531 #
loop $-1 $-1 $163 $116 #
face $164 $165 $73 $4 $-1 $166 forward single #
point $-1 2 0 -0.37124198913020123 #
face $167 $168 $80 $4 $-1 $25 forward single #
coedge $-1 $85 $83 $169 $170 forward $50 $-1 #
coedge $-1 $156 $171 $83 $121 reversed $157 $-1 #
edge $172 $123 $173 $83 $174 forward #
ptlist-eye-attrib $-1 $-1 $-1 $84 #
vertex $-1 $161 $175 #
straight-curve $-1 -1.5196270299999992 3 3.49814531 0 -1 0 I I #
coedge $-1 $176 $150 $85 $126 reversed $145 $-1 #
edge $177 $178 $128 $85 $179 forward #
ptlist-eye-attrib $-1 $-1 $-1 $86 #
vertex $-1 $86 $180 #
fmesh-eye-attrib $-1 $181 $-1 $87 #
cone-surface $-1 3.2882760903933295 3 -2.8959196781879126 0 -1 0 -4.807903120393326 0 6.3940649881879148 1 I I 0 1 7.9999999680161498 forward I I I I #
render-rbase-attrib $-1 $-1 $91 $35 $7 $-1 0 2 -1 0 0 0 0 -1 -0 -1 -0 0 3 0 1 rotate no_reflect no_shear #
rgb_color-st-attrib $-1 $182 $92 $58 0.792156862745098 0.88235294117647056 1 #
fmesh-eye-attrib $-1 $183 $-1 $93 #
face $184 $116 $185 $4 $-1 $186 forward single #
loop $-1 $-1 $187 $93 #
cone-surface $-1 2.1671572796550027 3 -0.099999988869605039 0 -1 0 1.0344997303235459e-008 0 -0.30000001113039498 1 I I 0 1 0.30000001113039515 forward I I I I #
coedge $-1 $188 $189 $190 $191 forward $94 $-1 #
coedge $-1 $192 $96 $189 $193 reversed $59 $-1 #
coedge $-1 $96 $192 $97 $143 forward $59 $-1 #
coedge $-1 $99 $190 $96 $141 reversed $145 $-1 #
edge $194 $148 $195 $96 $196 forward #
coedge $-1 $98 $97 $155 $197 forward $36 $-1 #
edge $198 $199 $148 $139 $200 forward #
edge $201 $159 $147 $98 $202 forward #
loop $-1 $-1 $99 $203 #
ptlist-eye-attrib $-1 $-1 $-1 $100 #
vertex $-1 $144 $204 #
vertex $-1 $143 $205 #
ellipse-curve $-1 3.6828427176970582 -8.5 0.29999999187493032 0 1 0 -7.6970581019963902e-009 0 -0.29999999187493032 1 I I #
coedge $-1 $125 $103 $101 $151 reversed $145 $-1 #
edge $206 $128 $106 $101 $207 forward #
ptlist-eye-attrib $-1 $-1 $-1 $104 #
ellipse-curve $-1 -3.3225905220986673 -8.5 -2.8959195509565197 0 1 0 7.2783721920986659 -0 3.3204359009565212 1 I I #
point $-1 1.4853124400000013 -8.5 3.49814531 #
coedge $-1 $208 $108 $142 $197 reversed $157 $-1 #
coedge $-1 $108 $120 $110 $161 reversed $157 $-1 #
loop $-1 $-1 $108 $168 #
ptlist-eye-attrib $-1 $-1 $-1 $109 #
vertex $-1 $109 $209 #
ellipse-curve $-1 -3.3225905220986673 3 -2.8959195509565197 0 -1 0 7.2783721920986659 -0 3.3204359009565212 1 I I #
edge $210 $112 $123 $110 $211 forward #
point $-1 1.4853124400000013 3 3.49814531 #
coedge $-1 $212 $213 $214 $215 forward $115 $-1 #
fmesh-eye-attrib $-1 $216 $-1 $116 #
face $217 $218 $219 $4 $-1 $220 forward single #
cone-surface $-1 1.1990408665951691e-014 3 -10.067117358627293 0 -1 0 2.1346758899999791 -0 9.6671173586272925 1 I I 0 -1 9.8999999586272889 forward I I I I #
fmesh-eye-attrib $-1 $221 $-1 $118 #
face $222 $203 $157 $4 $-1 $223 reversed single #
coedge $-1 $224 $225 $119 $170 reversed $226 $-1 #
edge $227 $173 $178 $119 $228 forward #
coedge $-1 $120 $229 $224 $230 reversed $157 $-1 #
ptlist-eye-attrib $-1 $-1 $-1 $121 #
vertex $-1 $121 $231 #
ellipse-curve $-1 3.2882760903933295 3 -2.8959196781879126 0 -1 0 -4.807903120393326 0 6.3940649881879148 1 I I #
point $-1 -1.5196270299999992 3 3.49814531 #
coedge $-1 $232 $125 $225 $233 reversed $145 $-1 #
ptlist-eye-attrib $-1 $-1 $-1 $126 #
vertex $-1 $170 $234 #
ellipse-curve $-1 3.2882760903933295 -8.5 -2.8959196781879126 0 1 0 -4.807903120393326 0 6.3940649881879148 1 I I #
point $-1 -1.5196270299999992 -8.5 3.49814531 #
rgb_color-st-attrib $-1 $235 $129 $87 0.792156862745098 0.88235294117647056 1 #
render-rbase-attrib $-1 $-1 $132 $58 $7 $-1 0 2 -1 0 0 0 0 -1 -0 -1 -0 0 3 0 1 rotate no_reflect no_shear #
rgb_color-st-attrib $-1 $236 $133 $93 0.792156862745098 0.88235294117647056 1 #
fmesh-eye-attrib $-1 $237 $-1 $134 #
loop $-1 $-1 $238 $134 #
plane-surface $-1 2.1509165899999956 3 -0.40000000000000002 0 0 -1 1 0 -0 forward_v I I I I #
coedge $-1 $239 $240 $241 $242 forward $135 $-1 #
coedge $-1 $243 $137 $240 $244 reversed $94 $-1 #
coedge $-1 $137 $243 $138 $193 forward $94 $-1 #
coedge $-1 $140 $241 $137 $191 reversed $145 $-1 #
edge $245 $195 $246 $137 $247 forward #
coedge $-1 $139 $138 $208 $248 forward $59 $-1 #
edge $249 $250 $195 $189 $251 forward #
ptlist-eye-attrib $-1 $-1 $-1 $141 #
vertex $-1 $193 $252 #
straight-curve $-1 2.7328427099999999 -8.5 0 -1 0 0 I I #
edge $253 $199 $159 $142 $254 forward #
ptlist-eye-attrib $-1 $-1 $-1 $143 #
vertex $-1 $248 $255 #
straight-curve $-1 3.6828427100000001 3 0 0 -1 0 I I #
ptlist-eye-attrib $-1 $-1 $-1 $144 #
straight-curve $-1 3.9557816699999986 3 0.42451635000000154 0 -1 0 I I #
face $256 $-1 $145 $4 $-1 $257 forward single #
point $-1 3.9557816699999986 -8.5 0.42451635000000154 #
point $-1 3.6828427100000001 -8.5 0 #
ptlist-eye-attrib $-1 $-1 $-1 $151 #
ellipse-curve $-1 -0.01715729499999985 -8.5 1.5000000154766271 0 1 0 1.5024697350000003 -0 1.9981452945233724 1 I I #
coedge $-1 $258 $155 $192 $248 reversed $157 $-1 #
point $-1 3.9557816699999986 3 0.42451635000000154 #
ptlist-eye-attrib $-1 $-1 $-1 $161 #
ellipse-curve $-1 -0.01715729499999985 3 1.5000000154766271 0 -1 0 1.5024697350000003 -0 1.9981452945233724 1 I I #
coedge $-1 $259 $163 $260 $261 reversed $115 $-1 #
coedge $-1 $163 $259 $262 $263 forward $115 $-1 #
coedge $-1 $264 $265 $163 $215 reversed $145 $-1 #
edge $266 $267 $268 $163 $269 forward #
rgb_color-st-attrib $-1 $270 $164 $116 0.792156862745098 0.88235294117647056 1 #
fmesh-eye-attrib $-1 $271 $-1 $165 #
face $272 $273 $274 $4 $-1 $275 forward single #
loop $-1 $-1 $276 $165 #
plane-surface $-1 -2.1509166 3 -0.40000000000000002 0 0 -1 1 0 -0 forward_v I I I I #
rgb_color-st-attrib $-1 $277 $167 $118 0.792156862745098 0.88235294117647056 1 #
fmesh-eye-attrib $-1 $278 $-1 $168 #
plane-surface $-1 -0.016834435329756314 3 1.3568279748903449 0 -1 0 -1 0 0 forward_v I I I I #
coedge $-1 $279 $169 $171 $230 forward $226 $-1 #
coedge $-1 $169 $279 $176 $233 forward $226 $-1 #
loop $-1 $-1 $225 $280 #
ptlist-eye-attrib $-1 $-1 $-1 $170 #
straight-curve $-1 -3.9900962599999943 3 0.42451635000000332 0 -1 0 I I #
coedge $-1 $171 $281 $282 $283 reversed $157 $-1 #
edge $284 $173 $285 $224 $286 forward #
point $-1 -3.9900962599999943 3 0.42451635000000332 #
coedge $-1 $287 $176 $288 $289 reversed $145 $-1 #
edge $290 $291 $178 $225 $292 forward #
point $-1 -3.9900962599999943 -8.5 0.42451635000000332 #
render-rbase-attrib $-1 $-1 $181 $87 $7 $-1 0 2 -1 0 0 0 0 -1 -0 -1 -0 0 3 0 1 rotate no_reflect no_shear #
render-rbase-attrib $-1 $-1 $183 $93 $7 $-1 0 2 -1 0 0 0 0 -1 -0 -1 -0 0 3 0 1 rotate no_reflect no_shear #
rgb_color-st-attrib $-1 $293 $184 $134 0.792156862745098 0.88235294117647056 1 #
coedge $-1 $262 $294 $264 $295 forward $185 $-1 #
coedge $-1 $296 $187 $294 $297 reversed $135 $-1 #
coedge $-1 $187 $296 $188 $244 forward $135 $-1 #
coedge $-1 $190 $264 $187 $242 reversed $145 $-1 #
edge $298 $246 $299 $187 $300 forward #
coedge $-1 $189 $188 $258 $301 reversed $94 $-1 #
edge $302 $303 $246 $240 $304 forward #
ptlist-eye-attrib $-1 $-1 $-1 $191 #
vertex $-1 $244 $305 #
ellipse-curve $-1 2.7328427203449976 -8.5 -0.30000001113039615 0 -1 0 -1.0344997303235459e-008 0 0.30000001113039598 1 I I #
edge $306 $250 $199 $192 $307 forward #
ptlist-eye-attrib $-1 $-1 $-1 $193 #
vertex $-1 $301 $308 #
straight-curve $-1 2.7328427100000003 3 -1.6653345369377348e-016 0 -1 0 I I #
point $-1 2.7328427100000003 -8.5 -1.6653345369377348e-016 #
ptlist-eye-attrib $-1 $-1 $-1 $197 #
ellipse-curve $-1 3.6828427176970582 3 0.29999999187493032 0 -1 0 -7.6970581019963902e-009 0 -0.29999999187493032 1 I I #
point $-1 3.6828427100000001 3 0 #
fmesh-eye-attrib $-1 $309 $-1 $203 #
plane-surface $-1 -0.016834435329756176 -8.5 1.3568279748903449 0 -1 0 -1 0 0 forward_v I I I I #
coedge $-1 $310 $208 $243 $301 forward $157 $-1 #
coedge $-1 $213 $212 $311 $312 reversed $115 $-1 #
coedge $-1 $276 $313 $212 $261 forward $219 $-1 #
edge $314 $315 $268 $260 $316 forward #
coedge $-1 $317 $238 $213 $263 reversed $185 $-1 #
edge $318 $319 $267 $213 $320 forward #
coedge $-1 $241 $214 $238 $295 reversed $145 $-1 #
coedge $-1 $214 $321 $276 $322 reversed $145 $-1 #
ptlist-eye-attrib $-1 $-1 $-1 $215 #
vertex $-1 $263 $323 #
vertex $-1 $261 $324 #
ellipse-curve $-1 1.1990408665951691e-014 -8.5 -10.067117358627293 0 -1 0 2.1346758899999791 -0 9.6671173586272925 1 I I #
render-rbase-attrib $-1 $-1 $216 $116 $7 $-1 0 2 -1 0 0 0 0 -1 -0 -1 -0 0 3 0 1 rotate no_reflect no_shear #
rgb_color-st-attrib $-1 $325 $217 $165 0.792156862745098 0.88235294117647056 1 #
fmesh-eye-attrib $-1 $326 $-1 $218 #
face $327 $328 $329 $4 $-1 $330 forward single #
loop $-1 $-1 $331 $218 #
cone-surface $-1 -2.1671572896550031 3 -0.099999988869605538 0 -1 0 -0.28284272034499702 0 -0.10000001113039469 1 I I 0 1 0.30000001113039526 forward I I I I #
coedge $-1 $332 $260 $265 $322 forward $219 $-1 #
render-rbase-attrib $-1 $-1 $221 $118 $7 $-1 0 2 -1 0 0 0 0 -1 -0 -1 -0 0 3 0 1 rotate no_reflect no_shear #
rgb_color-st-attrib $-1 $333 $222 $168 0.792156862745098 0.88235294117647056 1 #
coedge $-1 $225 $224 $334 $335 forward $226 $-1 #
face $336 $87 $226 $4 $-1 $337 forward single #
coedge $-1 $229 $338 $339 $340 forward $157 $-1 #
coedge $-1 $341 $334 $229 $283 forward $342 $-1 #
edge $343 $285 $344 $282 $345 forward #
ptlist-eye-attrib $-1 $-1 $-1 $230 #
vertex $-1 $230 $346 #
ellipse-curve $-1 -3.7171572922889848 3 0.30000000178141178 -0 -1 0 -0.27293896771101522 0 0.1245163482185882 1 I I #
coedge $-1 $321 $232 $347 $348 reversed $145 $-1 #
coedge $-1 $334 $341 $232 $289 forward $342 $-1 #
edge $349 $350 $291 $288 $351 forward #
ptlist-eye-attrib $-1 $-1 $-1 $233 #
vertex $-1 $335 $352 #
ellipse-curve $-1 -3.7171572922889848 -8.5 0.30000000178141178 0 1 0 -0.27293896771101522 0 0.1245163482185882 1 I I #
render-rbase-attrib $-1 $-1 $237 $134 $7 $-1 0 2 -1 0 0 0 0 -1 -0 -1 -0 0 3 0 1 rotate no_reflect no_shear #
coedge $-1 $238 $317 $239 $297 forward $185 $-1 #
edge $353 $299 $267 $238 $354 forward #
coedge $-1 $240 $239 $310 $355 forward $135 $-1 #
edge $356 $357 $299 $294 $358 forward #
ptlist-eye-attrib $-1 $-1 $-1 $242 #
vertex $-1 $297 $359 #
ellipse-curve $-1 2.1671572796550027 -8.5 -0.099999988869605039 0 1 0 1.0344997303235459e-008 0 -0.30000001113039498 1 I I #
edge $360 $250 $303 $243 $361 forward #
ptlist-eye-attrib $-1 $-1 $-1 $244 #
vertex $-1 $355 $362 #
straight-curve $-1 2.4499999999999997 3 -0.1999999999999999 0 -1 0 I I #
point $-1 2.4499999999999997 -8.5 -0.1999999999999999 #
ptlist-eye-attrib $-1 $-1 $-1 $248 #
straight-curve $-1 2.7328427099999999 3 0 1 0 -0 I I #
point $-1 2.7328427100000003 3 -1.6653345369377348e-016 #
rgb_color-st-attrib $-1 $363 $256 $203 0.792156862745098 0.88235294117647056 1 #
coedge $-1 $364 $258 $296 $355 reversed $157 $-1 #
coedge $-1 $365 $364 $259 $312 forward $157 $-1 #
edge $366 $319 $315 $259 $367 forward #
coedge $-1 $260 $332 $365 $368 forward $219 $-1 #
ptlist-eye-attrib $-1 $-1 $-1 $261 #
vertex $-1 $368 $369 #
straight-curve $-1 -2.1346759 3 -0.40000000000000002 0 -1 0 I I #
coedge $-1 $294 $262 $364 $370 forward $185 $-1 #
ptlist-eye-attrib $-1 $-1 $-1 $263 #
vertex $-1 $312 $371 #
straight-curve $-1 2.1346758899999911 3 -0.40000000000000036 0 -1 0 I I #
coedge $-1 $265 $287 $331 $372 reversed $145 $-1 #
edge $373 $268 $374 $276 $375 forward #
point $-1 2.1346758899999911 -8.5 -0.40000000000000036 #
point $-1 -2.1346759 -8.5 -0.40000000000000002 #
render-rbase-attrib $-1 $-1 $271 $165 $7 $-1 0 2 -1 0 0 0 0 -1 -0 -1 -0 0 3 0 1 rotate no_reflect no_shear #
rgb_color-st-attrib $-1 $376 $272 $218 0.792156862745098 0.88235294117647056 1 #
fmesh-eye-attrib $-1 $377 $-1 $273 #
face $378 $280 $342 $4 $-1 $379 forward single #
loop $-1 $-1 $347 $273 #
cone-surface $-1 -2.7328427303449967 3 -0.30000001113039521 0 -1 0 0.28284272034499658 -0 0.10000001113039458 1 I I 0 -1 0.30000001113039476 forward I I I I #
coedge $-1 $380 $381 $321 $372 forward $274 $-1 #
coedge $-1 $313 $276 $381 $382 reversed $219 $-1 #
render-rbase-attrib $-1 $-1 $278 $168 $7 $-1 0 2 -1 0 0 0 0 -1 -0 -1 -0 0 3 0 1 rotate no_reflect no_shear #
coedge $-1 $282 $288 $279 $335 reversed $342 $-1 #
edge $383 $285 $291 $279 $384 forward #
fmesh-eye-attrib $-1 $385 $-1 $280 #
cone-surface $-1 -3.7171572922889848 3 0.30000000178141178 0 -1 0 -0.27293896771101522 0 0.1245163482185882 1 I I 0 1 0.30000000178141223 forward I I I I #
coedge $-1 $281 $365 $386 $387 reversed $157 $-1 #
coedge $-1 $388 $389 $281 $340 reversed $329 $-1 #
edge $390 $391 $344 $339 $392 forward #
coedge $-1 $288 $282 $389 $393 forward $342 $-1 #
loop $-1 $-1 $288 $328 #
ptlist-eye-attrib $-1 $-1 $-1 $283 #
vertex $-1 $283 $394 #
straight-curve $-1 -3.7171573000000002 3 0 1 0 -0 I I #
point $-1 -3.7171573000000002 3 -3.0531133177191805e-016 #
coedge $-1 $389 $388 $287 $348 forward $329 $-1 #
edge $395 $396 $350 $347 $397 forward #
ptlist-eye-attrib $-1 $-1 $-1 $289 #
vertex $-1 $393 $398 #
straight-curve $-1 -3.7171573000000002 -8.5 0 -1 0 0 I I #
point $-1 -3.7171573000000002 -8.5 -3.0531133177191805e-016 #
ptlist-eye-attrib $-1 $-1 $-1 $295 #
straight-curve $-1 2.13467589 -8.5 -0.40000000000000002 -1 0 0 I I #
edge $399 $357 $303 $296 $400 forward #
ptlist-eye-attrib $-1 $-1 $-1 $297 #
vertex $-1 $370 $401 #
straight-curve $-1 2.16715729 3 -0.40000000000000002 0 -1 0 I I #
point $-1 2.16715729 -8.5 -0.40000000000000002 #
ptlist-eye-attrib $-1 $-1 $-1 $301 #
ellipse-curve $-1 2.7328427203449976 3 -0.30000001113039615 0 -1 0 -1.0344997303235459e-008 0 0.30000001113039598 1 I I #
point $-1 2.4499999999999997 3 -0.1999999999999999 #
render-rbase-attrib $-1 $-1 $309 $203 $7 $-1 0 2 -1 0 0 0 0 -1 -0 -1 -0 0 3 0 1 rotate no_reflect no_shear #
coedge $-1 $311 $310 $317 $370 reversed $157 $-1 #
coedge $-1 $338 $311 $313 $368 reversed $157 $-1 #
ptlist-eye-attrib $-1 $-1 $-1 $312 #
ellipse-curve $-1 1.1990408665951691e-014 3 -10.067117358627293 0 -1 -0 2.1346758899999791 -0 9.6671173586272925 1 I I #
edge $402 $403 $315 $313 $404 forward #
point $-1 -2.1346759 3 -0.40000000000000002 #
edge $405 $319 $357 $317 $406 forward #
point $-1 2.1346758899999911 3 -0.40000000000000036 #
edge $407 $374 $396 $331 $408 forward #
ptlist-eye-attrib $-1 $-1 $-1 $322 #
vertex $-1 $382 $409 #
straight-curve $-1 -2.1671573 -8.5 -0.40000000000000002 -1 0 0 I I #
render-rbase-attrib $-1 $-1 $326 $218 $7 $-1 0 2 -1 0 0 0 0 -1 -0 -1 -0 0 3 0 1 rotate no_reflect no_shear #
rgb_color-st-attrib $-1 $410 $327 $273 0.792156862745098 0.88235294117647056 1 #
fmesh-eye-attrib $-1 $411 $-1 $328 #
plane-surface $-1 -3.22500001 3 0 0 0 -1 1 0 -0 forward_v I I I I #
coedge $-1 $386 $331 $388 $412 reversed $274 $-1 #
coedge $-1 $331 $386 $332 $382 forward $274 $-1 #
edge $413 $403 $374 $381 $414 forward #
ptlist-eye-attrib $-1 $-1 $-1 $335 #
straight-curve $-1 -3.7171573000000002 3 -3.0531133177191805e-016 0 -1 0 I I #
rgb_color-st-attrib $-1 $415 $336 $280 0.792156862745098 0.88235294117647056 1 #
coedge $-1 $381 $380 $338 $387 forward $274 $-1 #
edge $416 $391 $403 $386 $417 forward #
coedge $-1 $347 $339 $380 $412 forward $329 $-1 #
coedge $-1 $339 $347 $341 $393 reversed $329 $-1 #
ptlist-eye-attrib $-1 $-1 $-1 $340 #
vertex $-1 $340 $418 #
ellipse-curve $-1 -2.7328427303449967 3 -0.30000001113039521 0 -1 0 0.28284272034499658 -0 0.10000001113039458 1 I I #
edge $419 $344 $350 $341 $420 forward #
point $-1 -2.7328427199999998 3 0 #
ptlist-eye-attrib $-1 $-1 $-1 $348 #
vertex $-1 $412 $421 #
ellipse-curve $-1 -2.7328427303449967 -8.5 -0.30000001113039521 0 -1 0 0.28284272034499658 -0 0.10000001113039458 1 I I #
point $-1 -2.7328427199999998 -8.5 0 #
ptlist-eye-attrib $-1 $-1 $-1 $355 #
ellipse-curve $-1 2.1671572796550027 3 -0.099999988869605039 0 -1 0 1.0344997303235459e-008 0 -0.30000001113039498 1 I I #
point $-1 2.16715729 3 -0.40000000000000002 #
ptlist-eye-attrib $-1 $-1 $-1 $368 #
vertex $-1 $387 $422 #
straight-curve $-1 -2.1671573 3 -0.40000000000000002 1 0 -0 I I #
ptlist-eye-attrib $-1 $-1 $-1 $370 #
straight-curve $-1 2.13467589 3 -0.40000000000000002 1 0 -0 I I #
ptlist-eye-attrib $-1 $-1 $-1 $372 #
ellipse-curve $-1 -2.1671572896550031 -8.5 -0.099999988869605538 0 1 0 -0.28284272034499702 0 -0.10000001113039469 1 I I #
point $-1 -2.1671573 -8.5 -0.40000000000000058 #
render-rbase-attrib $-1 $-1 $377 $273 $7 $-1 0 2 -1 0 0 0 0 -1 -0 -1 -0 0 3 0 1 rotate no_reflect no_shear #
rgb_color-st-attrib $-1 $423 $378 $328 0.792156862745098 0.88235294117647056 1 #
edge $424 $391 $396 $388 $425 forward #
ptlist-eye-attrib $-1 $-1 $-1 $382 #
straight-curve $-1 -2.1671573 3 -0.40000000000000058 0 -1 0 I I #
render-rbase-attrib $-1 $-1 $385 $280 $7 $-1 0 2 -1 0 0 0 0 -1 -0 -1 -0 0 3 0 1 rotate no_reflect no_shear #
ptlist-eye-attrib $-1 $-1 $-1 $387 #
ellipse-curve $-1 -2.1671572896550031 3 -0.099999988869605538 0 -1 0 -0.28284272034499702 0 -0.10000001113039469 1 I I #
point $-1 -2.4500000100000001 3 -0.20000000000000062 #
ptlist-eye-attrib $-1 $-1 $-1 $393 #
straight-curve $-1 -2.7328427199999998 3 0 0 -1 0 I I #
point $-1 -2.4500000100000001 -8.5 -0.20000000000000062 #
point $-1 -2.1671573 3 -0.40000000000000058 #
render-rbase-attrib $-1 $-1 $411 $328 $7 $-1 0 2 -1 0 0 0 0 -1 -0 -1 -0 0 3 0 1 rotate no_reflect no_shear #
ptlist-eye-attrib $-1 $-1 $-1 $412 #
straight-curve $-1 -2.4500000100000001 3 -0.20000000000000062 0 -1 0 I I #
End-of-ACIS-data 